<?xml version="1.0" standalone="no"?>
<!DOCTYPE svg PUBLIC "-//W3C//DTD SVG 1.1//EN" "http://www.w3.org/Graphics/SVG/1.1/DTD/svg11.dtd" >
<svg xmlns="http://www.w3.org/2000/svg">
<metadata>
This is a custom SVG webfont generated by Font Squirrel.
Copyright   : Copyright 2011 Dalton Maag Ltd Modification of this file requires prior written permission from Dalton Maag Ltd
Designer    : Dalton Maag Ltd
Foundry     : Dalton Maag Ltd
Foundry URL : httpwwwdaltonmaagcom
</metadata>
<defs>
<font id="TerumoBCTLight" horiz-adv-x="1112" >
<font-face units-per-em="2048" ascent="1638" descent="-410" />
<missing-glyph horiz-adv-x="430" />
<glyph unicode=" "  horiz-adv-x="430" />
<glyph unicode="&#x09;" horiz-adv-x="430" />
<glyph unicode="&#xa0;" horiz-adv-x="430" />
<glyph unicode="!" horiz-adv-x="430" d="M129 76q0 41 24.5 69.5t61.5 28.5t61.5 -29.5t24.5 -68.5t-24.5 -69t-61.5 -30t-61.5 29t-24.5 70zM162 424v942h110v-942h-110z" />
<glyph unicode="&#x22;" horiz-adv-x="614" d="M113 760v606h106v-606h-106zM395 760v606h109v-606h-109z" />
<glyph unicode="#" horiz-adv-x="1243" d="M4 506v96h365v305h-365v94h365v365h102v-365h301v365h102v-365h363v-94h-363v-305h363v-96h-363v-354h-102v354h-301v-354h-102v354h-365zM471 602h301v305h-301v-305z" />
<glyph unicode="$" d="M96 178l90 58q45 -72 128 -114t190 -44v608q-80 31 -145.5 65.5t-113.5 78.5t-76 102.5t-28 136.5q0 72 28 129t76 97t114.5 62.5t144.5 26.5v252h96v-252q135 -8 223 -61t138 -131l-91 -53q-45 63 -110.5 102t-159.5 47v-524q96 -41 169 -81t120 -87t70.5 -106.5 t23.5 -139.5q0 -156 -101.5 -255t-281.5 -115v-254h-96v254q-133 4 -241 55t-167 143zM256 1079q0 -59 17.5 -101t49 -75t76.5 -58.5t105 -49.5v493q-117 -4 -182.5 -62.5t-65.5 -146.5zM600 76q121 12 193.5 81.5t72.5 186.5q0 57 -16 101t-48 80t-82 67t-120 61v-577z" />
<glyph unicode="%" horiz-adv-x="1558" d="M70 72l1325 1300l71 -65l-1323 -1311zM70 1077q0 61 23.5 116.5t64.5 96.5t95 64.5t120 23.5q63 0 120.5 -23.5t98.5 -64.5t64.5 -96t23.5 -117q0 -61 -23.5 -116.5t-64.5 -95.5t-98.5 -63.5t-120.5 -23.5q-66 0 -121 23q-53 25 -94 64.5t-64.5 95t-23.5 116.5zM166 1079 q0 -41 16.5 -78.5t40.5 -68.5q29 -29 67 -47.5t83 -18.5t82 18.5t64.5 48.5t43 67.5t15.5 78.5q0 43 -15.5 82t-43 69t-64.5 46t-82 16t-83 -16t-64.5 -46t-43 -69t-16.5 -82zM879 289q0 61 24.5 116.5t64.5 96.5t96 64.5t122 23.5q63 0 119.5 -23.5t97.5 -64.5t64.5 -96.5 t23.5 -116.5t-23.5 -116.5t-64.5 -96.5t-97.5 -64.5t-119.5 -23.5q-66 0 -121 22q-57 25 -97 66t-64.5 96.5t-24.5 116.5zM977 291q0 -41 15.5 -80t43.5 -70q29 -29 66 -47t80 -18q47 0 84 18.5t65.5 48t44 68.5t15.5 80q0 43 -15.5 82t-44 67.5t-65.5 45t-84 16.5 q-88 0 -146.5 -61.5t-58.5 -149.5z" />
<glyph unicode="&#x26;" horiz-adv-x="1259" d="M82 356q0 160 88 273.5t262 195.5l-55 80q-37 51 -62.5 102.5t-25.5 114.5q0 57 22.5 104.5t62.5 81t93 52t113 18.5q59 0 109 -17.5t89 -50t61.5 -79.5t22.5 -107q0 -117 -70.5 -193.5t-203.5 -137.5l274 -367q27 51 58.5 111.5t67.5 120t75 111.5t76 87l63 -74 q-84 -84 -146.5 -197.5t-127.5 -238.5l262 -346h-127l-189 252q-82 -133 -177 -205t-234 -72q-88 0 -160 32t-121 85t-74.5 121.5t-25.5 142.5zM197 354q0 -57 18 -108t54 -91t85 -63.5t113 -23.5q61 0 111.5 21.5t89.5 56t73.5 81.5t65.5 101l-318 422 q-147 -70 -219.5 -165.5t-72.5 -230.5zM399 1126q0 -43 21.5 -86t50.5 -84l61 -88q111 47 168.5 106.5t57.5 149.5q0 76 -52.5 121t-127.5 45q-78 0 -128.5 -46t-50.5 -118z" />
<glyph unicode="'" horiz-adv-x="331" d="M113 760v606h106v-606h-106z" />
<glyph unicode="(" horiz-adv-x="540" d="M98 700q0 279 112 484t298 313l43 -72q-158 -113 -247 -298t-89 -427t89 -426t247 -299l-43 -71q-186 111 -298 314t-112 482z" />
<glyph unicode=")" horiz-adv-x="540" d="M-8 -25q156 117 246 300.5t90 424.5q0 242 -90.5 427.5t-245.5 297.5l43 72q184 -109 295.5 -313.5t111.5 -483.5t-111.5 -482.5t-295.5 -313.5z" />
<glyph unicode="*" horiz-adv-x="870" d="M76 870l284 179l-282 184l47 72l264 -175v297h88v-297l268 173l50 -68l-287 -184l285 -183l-45 -71l-271 172v-312h-88v312l-266 -172z" />
<glyph unicode="+" d="M72 629v100h432v455h104v-455h430v-100h-430v-455h-104v455h-432z" />
<glyph unicode="," horiz-adv-x="321" d="M12 -123q35 12 76 40t55 58q-23 12 -40 37t-17 64q0 41 23.5 71.5t60.5 30.5q39 0 63.5 -29.5t24.5 -80.5q0 -41 -20.5 -79t-52 -69t-73.5 -54.5t-83 -35.5z" />
<glyph unicode="-" horiz-adv-x="649" d="M96 489v107h457v-107h-457z" />
<glyph unicode="." horiz-adv-x="364" d="M96 76q0 41 24.5 69.5t61.5 28.5t61.5 -29.5t24.5 -68.5t-24.5 -69t-61.5 -30t-61.5 29t-24.5 70z" />
<glyph unicode="/" horiz-adv-x="989" d="M0 16l901 1528l88 -49l-897 -1534z" />
<glyph unicode="0" d="M74 676q0 127 27.5 253t87 225t150.5 161.5t218 62.5t218 -62.5t149.5 -161.5t86 -225t27.5 -253t-27.5 -252t-86 -225.5t-149.5 -163t-218 -62.5t-219 62q-90 63 -149.5 163.5t-87 225.5t-27.5 252zM197 678q0 -100 19.5 -208t62.5 -196t112.5 -145t165.5 -57t163.5 57 t110.5 145t63.5 196t20.5 208q0 104 -20.5 211.5t-63.5 193.5t-110.5 140.5t-163.5 54.5t-165.5 -54.5t-112.5 -140.5t-62.5 -193.5t-19.5 -211.5z" />
<glyph unicode="1" d="M186 1092l400 260h116v-1352h-116v1229l-336 -219z" />
<glyph unicode="2" d="M121 1120q63 117 172.5 187.5t265.5 70.5q92 0 166 -26.5t124 -73.5t76.5 -110.5t26.5 -137.5q0 -76 -22.5 -145.5t-60.5 -134t-86 -127t-99 -123.5q-39 -47 -88 -103.5t-100.5 -113t-96.5 -105.5t-73 -80h661v-98h-827v70q111 121 216 238.5t204 236.5q53 59 98 117.5 t77.5 116t53 114.5t20.5 117q0 129 -77.5 199.5t-200.5 70.5q-115 0 -199 -57.5t-139 -151.5z" />
<glyph unicode="3" d="M92 184l94 60q55 -86 138.5 -129t185.5 -43q66 0 128 19.5t109.5 56t76 91t28.5 123.5q0 72 -29.5 126.5t-77 91t-107.5 57t-122 27.5v84q47 6 102.5 25.5t102.5 53t77.5 81.5t30.5 112q0 61 -25.5 109.5t-67.5 82t-97 51t-115 17.5q-117 0 -191.5 -51t-117.5 -125 l-90 51q55 94 157.5 158.5t262.5 64.5q86 0 159.5 -26.5t129 -72.5t86 -108.5t30.5 -136.5q0 -123 -73.5 -204.5t-188.5 -118.5q57 -14 109.5 -43t91.5 -72t61.5 -100.5t22.5 -130.5q0 -92 -38 -164t-100.5 -123t-145.5 -78t-175 -27q-135 0 -245.5 53.5t-176.5 157.5z" />
<glyph unicode="4" d="M86 418v114l700 820h82v-836h158v-98h-158v-418h-108v418h-674zM203 516h557v651z" />
<glyph unicode="5" d="M119 162l92 59q45 -66 124 -107.5t193 -41.5q156 0 252.5 92t96.5 252q0 100 -45.5 171.5t-125 117t-190 66t-237.5 20.5h-46q-23 0 -45 -3v562h730v-99h-619v-364h20q141 0 263.5 -26.5t213.5 -83t142 -146.5t51 -217q0 -104 -34.5 -185.5t-95 -138.5t-145.5 -87 t-186 -30q-150 0 -252 52.5t-157 136.5z" />
<glyph unicode="6" d="M119 510q0 164 52 307.5t148.5 255t228.5 189t290 108.5l26 -90q-94 -18 -187 -63.5t-174 -113t-142.5 -154.5t-92.5 -191q63 41 141 68.5t177 27.5q96 0 174 -35t133 -94t84 -139t29 -170q0 -92 -30 -173t-85 -140.5t-134 -94.5t-179 -35q-113 0 -199 42t-144.5 115 t-87 171t-28.5 209zM240 500q0 -78 17 -156t58 -139.5t106.5 -100t158.5 -38.5q76 0 134 28.5t98 76.5t60.5 110.5t20.5 130.5q0 70 -21.5 133t-63.5 111.5t-104.5 76t-142.5 27.5q-92 0 -172 -33t-137 -80q-4 -31 -8 -68.5t-4 -78.5z" />
<glyph unicode="7" d="M86 1251v101h924v-80l-533 -1272h-123l525 1251h-793z" />
<glyph unicode="8" d="M106 356q0 131 76 222q78 92 195 129q-102 37 -174 115.5t-72 199.5q0 82 33 148.5t88 112.5t134 70.5t171 24.5t170 -24.5t133 -70.5t87 -110.5t32 -146.5q0 -125 -70.5 -201.5t-171.5 -117.5q117 -35 190.5 -127.5t73.5 -221.5q0 -92 -34.5 -163.5t-95 -120.5 t-141.5 -75t-173 -26t-174 26t-143.5 74t-97.5 119.5t-36 163.5zM221 358q0 -72 27 -127q27 -53 74 -90t107 -55t128 -18q66 0 126 18t106.5 55t74 91.5t27.5 125.5q0 66 -27.5 121.5t-74 95t-107.5 62t-127 22.5q-68 0 -127 -22.5t-106.5 -62t-74 -95t-26.5 -121.5z M244 1024q0 -66 22 -117q27 -49 70 -84t99.5 -52t119.5 -17q61 0 118.5 18.5t100.5 52t68.5 83.5t25.5 116t-25.5 115t-68.5 81.5t-99.5 49t-117.5 16.5q-63 0 -119.5 -16.5t-99.5 -49t-68.5 -81.5t-25.5 -115z" />
<glyph unicode="9" d="M119 944q0 90 29.5 169t86 138.5t135.5 93t179 33.5q111 0 195.5 -42t143 -114.5t88.5 -171t30 -208.5q0 -166 -53.5 -309.5t-150.5 -256t-230.5 -188.5t-292.5 -106l-25 90q104 25 200.5 70.5t175.5 113.5t137 155t91 191q-55 -41 -134 -68.5t-183 -27.5 q-98 0 -176 33.5t-133.5 93t-84 139.5t-28.5 172zM229 948q0 -76 21.5 -140.5t63.5 -110.5t105.5 -71.5t145.5 -25.5q88 0 172 35q86 35 140 78q4 33 7 67.5t3 71.5q0 78 -18.5 155.5t-59.5 139t-105.5 99.5t-156.5 38q-78 0 -136.5 -28.5t-99.5 -74.5t-61.5 -108 t-20.5 -125z" />
<glyph unicode=":" horiz-adv-x="364" d="M96 76q0 41 24.5 69.5t61.5 28.5t61.5 -29.5t24.5 -68.5t-24.5 -69t-61.5 -30t-61.5 29t-24.5 70zM96 834q0 41 24.5 69.5t61.5 28.5t61.5 -30t24.5 -68q0 -41 -24.5 -71t-61.5 -30t-61.5 30t-24.5 71z" />
<glyph unicode=";" horiz-adv-x="321" d="M12 -123q35 12 76 40t55 58q-23 12 -40 37t-17 64q0 41 23.5 71.5t60.5 30.5q39 0 63.5 -29.5t24.5 -80.5q0 -41 -20.5 -79t-52 -69t-73.5 -54.5t-83 -35.5zM84 834q0 41 24.5 69.5t61.5 28.5t60.5 -30t23.5 -68q0 -41 -23.5 -71t-60.5 -30t-61.5 30t-24.5 71z" />
<glyph unicode="&#x3c;" d="M117 637v90l844 317l40 -98l-710 -262l727 -272l-41 -103z" />
<glyph unicode="=" d="M72 403v101h968v-101h-968zM72 774v98h968v-98h-968z" />
<glyph unicode="&#x3e;" d="M119 412l727 272l-715 262l43 98l846 -317v-90l-862 -328z" />
<glyph unicode="?" horiz-adv-x="757" d="M-2 1165q23 37 58.5 75t81.5 68.5t105.5 50t133.5 19.5q178 0 270 -86t92 -231q0 -55 -16 -102.5t-42 -91.5t-59.5 -85t-70.5 -82q-37 -39 -62.5 -70.5t-43 -61t-25.5 -58.5t-8 -64v-53h-111v62q0 92 46 157.5t104 128.5q37 39 68.5 76t55 76t36 81t12.5 93 q0 104 -67 161.5t-181 57.5q-53 0 -97.5 -15.5t-81 -40t-66.5 -55t-52 -63.5zM268 76q0 41 24.5 69.5t61.5 28.5q39 0 62.5 -29.5t23.5 -68.5t-23.5 -69t-62.5 -30q-37 0 -61.5 29t-24.5 70z" />
<glyph unicode="@" horiz-adv-x="1951" d="M106 506q0 190 73 348t196 270.5t285.5 174t343.5 61.5q186 0 340.5 -62.5t266 -171t173 -255t61.5 -312.5q0 -106 -26.5 -198.5t-75.5 -160t-119 -106.5t-156 -39q-78 0 -135 30t-90 83q-43 -41 -111.5 -75t-164.5 -34q-86 0 -158 31t-124 88.5t-82 136t-30 174.5 q0 100 34 182.5t95.5 140.5t148.5 89t196 31q63 0 134.5 -9.5t135.5 -25.5v-600q0 -72 41 -114t112 -42q55 0 104.5 27t85.5 78t57.5 128t21.5 177q0 150 -50.5 282t-145.5 230t-232 154.5t-310 56.5q-176 0 -320 -59.5t-247.5 -163t-161 -243.5t-57.5 -302 q0 -174 62.5 -314.5t168 -239.5t245.5 -152.5t296 -53.5q143 0 261 39t218 104l45 -69q-111 -74 -239.5 -117t-286.5 -43q-186 0 -347 63.5t-278.5 176t-185.5 268.5t-68 338zM686 489q0 -82 23.5 -145t63.5 -106t93.5 -65.5t114.5 -22.5q74 0 132 27.5t99 68.5q-4 12 -4 24 v555q-45 10 -89 14.5t-79 4.5q-74 0 -139 -21.5t-112.5 -65.5t-75 -111t-27.5 -157z" />
<glyph unicode="A" horiz-adv-x="1181" d="M0 0l545 1366h88l549 -1366h-121l-176 438h-592l-172 -438h-121zM332 541h514l-262 659z" />
<glyph unicode="B" horiz-adv-x="1118" d="M174 0v1366h391q203 0 309.5 -86t106.5 -260q0 -123 -69.5 -196.5t-206.5 -98.5q156 -10 252 -95t96 -251q0 -88 -30 -158.5t-83 -120t-129 -75t-166 -25.5h-471zM293 100h344q141 0 218 76t77 207q0 154 -100.5 219.5t-274.5 65.5h-264v-568zM293 770h258 q152 0 230.5 69.5t78.5 186.5q0 125 -75.5 182.5t-217.5 57.5h-274v-496z" />
<glyph unicode="C" horiz-adv-x="1193" d="M104 678q0 174 44.5 307t121 223t178 137.5t216.5 47.5q178 0 291.5 -77t174.5 -200l-98 -51q-25 43 -56.5 84t-76.5 72.5t-101.5 50t-123.5 18.5q-96 0 -177 -40t-141.5 -117.5t-94.5 -192.5t-34 -264q0 -133 34 -243.5t94.5 -189.5t146.5 -123t188 -44q70 0 124 17.5 t97 47t78 69.5t60 85l94 -53q-33 -57 -75 -106.5t-97.5 -85.5t-125 -56.5t-157.5 -20.5q-135 0 -243.5 49.5t-184.5 141.5t-116 222t-40 292z" />
<glyph unicode="D" horiz-adv-x="1294" d="M174 0v1366h352q154 0 281 -42t217 -125t139 -207t49 -290q0 -178 -49 -310t-139 -219t-216 -130t-282 -43h-352zM291 100h215q129 0 236.5 34t184.5 106.5t120 184.5t43 269q0 145 -41 252t-116 177.5t-181.5 105.5t-237.5 35h-223v-1164z" />
<glyph unicode="E" horiz-adv-x="1048" d="M174 0v1366h805v-100h-686v-490h495v-102h-497v-574h731v-100h-848z" />
<glyph unicode="F" horiz-adv-x="966" d="M174 0v1366h791v-100h-672v-512h493v-101h-495v-653h-117z" />
<glyph unicode="G" horiz-adv-x="1261" d="M104 678q0 172 47.5 305t125 224t183 138.5t226.5 47.5q96 0 170 -20.5t129 -55.5t94 -82t70 -100l-98 -56q-23 43 -56.5 81t-78 67.5t-101.5 47t-129 17.5q-90 0 -173 -39t-146.5 -115.5t-101.5 -192.5t-38 -269q0 -137 36 -249t100.5 -191.5t154.5 -122.5t199 -43 q96 0 184 18t137 35v424h-270v102h387v-600q-74 -29 -189.5 -52.5t-250.5 -23.5q-137 0 -249 46.5t-192.5 135.5t-125 220t-44.5 303z" />
<glyph unicode="H" horiz-adv-x="1366" d="M174 0v1366h119v-608h780v608h119v-1366h-119v655h-780v-655h-119z" />
<glyph unicode="I" horiz-adv-x="466" d="M174 0v1366h119v-1366h-119z" />
<glyph unicode="J" horiz-adv-x="473" d="M-84 -164q55 12 105.5 30.5t86 49.5t56 75t20.5 103v1272h119v-1274q0 -84 -28.5 -145.5t-79 -103.5t-117 -66.5t-139.5 -36.5z" />
<glyph unicode="K" horiz-adv-x="1163" d="M174 0v1366h119v-664l682 664h141l-551 -539l594 -827h-139l-537 745l-190 -180v-565h-119z" />
<glyph unicode="L" horiz-adv-x="1001" d="M174 0v1366h119v-1266h692v-100h-811z" />
<glyph unicode="M" horiz-adv-x="1554" d="M174 0v1366h152l465 -1147l444 1147h145v-1366h-114v1163l-459 -1186h-27l-491 1184v-1161h-115z" />
<glyph unicode="N" horiz-adv-x="1390" d="M174 0v1366h125l803 -1149v1149h115v-1366h-103l-823 1178v-1178h-117z" />
<glyph unicode="O" horiz-adv-x="1382" d="M104 684q0 137 38 265t113 226.5t184.5 158t254.5 59.5q150 0 259.5 -60.5t181 -160t107.5 -227.5t36 -261t-36 -261t-107.5 -227.5t-181 -161t-259.5 -61.5t-262 60q-111 61 -183.5 160.5t-108.5 227.5t-36 263zM227 684q0 -111 29 -220.5t86 -197.5q57 -86 145 -139 t207 -53t205 54t143.5 140t85 195.5t27.5 220.5t-26.5 219.5t-84 194.5t-144.5 140t-206 54q-123 0 -211 -53t-144 -140t-84 -195.5t-28 -219.5z" />
<glyph unicode="P" horiz-adv-x="1114" d="M174 0v1366h449q215 0 332.5 -101.5t117.5 -297.5q0 -98 -33.5 -172t-92 -123t-141.5 -74t-179 -25h-334v-573h-119zM293 676h334q150 0 236.5 76.5t86.5 212.5q0 141 -81 221t-246 80h-330v-590z" />
<glyph unicode="Q" horiz-adv-x="1382" d="M104 686q0 137 38 265t113 226.5t184.5 157t254.5 58.5q150 0 259.5 -60.5t181 -160t107.5 -226.5t36 -260q0 -125 -32 -246t-95.5 -218t-160.5 -162.5t-230 -82.5q29 -78 115 -111.5t208 -39.5l-10 -98q-82 6 -149.5 19t-125 41t-100.5 74t-69 115q-135 14 -232.5 79 t-162 162t-97.5 218t-33 250zM227 686q0 -111 29 -220.5t86 -197.5q57 -86 145 -140t207 -54t205 54t143.5 141t85 196.5t27.5 220.5q0 109 -26.5 217.5t-84 194.5t-144.5 140t-206 54q-123 0 -211 -53t-144 -139t-84 -194.5t-28 -219.5z" />
<glyph unicode="R" horiz-adv-x="1155" d="M174 0v1366h453q217 0 329.5 -97.5t112.5 -273.5t-103.5 -266t-275.5 -106l400 -623h-134l-399 618h-264v-618h-119zM293 719h325q162 0 246 67.5t84 208.5q0 131 -82 201t-243 70h-330v-547z" />
<glyph unicode="S" horiz-adv-x="1081" d="M68 201l98 65q61 -92 160.5 -142t218.5 -50q143 0 237.5 65.5t94.5 204.5q0 70 -29 122t-80 92t-122 70.5t-148 57.5q-68 23 -136.5 52.5t-125 73.5t-91 103.5t-34.5 141.5t34.5 145.5t94 105.5t140.5 63.5t171 21.5q164 0 271.5 -58.5t174.5 -150.5l-92 -68 q-57 76 -145 126t-213 50q-66 0 -122 -14t-98 -43t-68 -72t-26 -100q0 -59 31 -101t78 -75t107.5 -57.5t117.5 -45.5q84 -31 162 -66.5t138.5 -84.5t96 -118t35.5 -165q0 -190 -123.5 -283.5t-334.5 -93.5q-156 0 -277.5 58.5t-195.5 169.5z" />
<glyph unicode="T" horiz-adv-x="1024" d="M8 1266v100h1008v-100h-447v-1266h-118v1266h-443z" />
<glyph unicode="U" horiz-adv-x="1357" d="M164 455v911h119v-881q0 -188 101 -298.5t294 -110.5t295 107.5t102 301.5v881h119v-911q0 -117 -41 -207t-110.5 -150.5t-165 -92.5t-201.5 -32q-111 0 -204 32t-161.5 92.5t-107.5 150.5t-39 207z" />
<glyph unicode="V" horiz-adv-x="1181" d="M12 1366h125l457 -1155l450 1155h125l-538 -1366h-74z" />
<glyph unicode="W" horiz-adv-x="1605" d="M12 1366h117l301 -1114l340 1114h66l344 -1114l295 1114h118l-360 -1366h-80l-350 1118l-348 -1118h-78z" />
<glyph unicode="X" horiz-adv-x="1056" d="M12 0l447 696l-408 670h137l340 -575l338 575h133l-403 -657l446 -709h-141l-375 614l-383 -614h-131z" />
<glyph unicode="Y" horiz-adv-x="1107" d="M0 1366h133l416 -604l430 604h129l-504 -707v-659h-119v657z" />
<glyph unicode="Z" horiz-adv-x="1148" d="M84 0v104l844 1162h-807v100h921v-113l-833 -1153h866v-100h-991z" />
<glyph unicode="[" horiz-adv-x="430" d="M156 -293v1800h272v-90h-164v-1618h164v-92h-272z" />
<glyph unicode="\" horiz-adv-x="980" d="M0 1495l92 53l889 -1517l-94 -60z" />
<glyph unicode="]" horiz-adv-x="430" d="M4 -201h164v1618h-164v90h270v-1800h-270v92z" />
<glyph unicode="^" horiz-adv-x="1079" d="M137 649l350 721h101l354 -706l-98 -41l-309 616l-299 -629z" />
<glyph unicode="_" horiz-adv-x="1079" d="M0 -340h1079v-88h-1079v88z" />
<glyph unicode="`" horiz-adv-x="628" d="M96 1380l80 82l354 -286l-51 -56z" />
<glyph unicode="a" horiz-adv-x="976" d="M84 276q0 106 57.5 177t147.5 112t203.5 57.5t230.5 18.5v43q0 113 -60.5 170t-173.5 57q-82 0 -144 -33.5t-103 -78.5l-78 57q53 63 131 104t199 41q340 0 340 -327v-674h-101l-8 84q-51 -49 -124 -78t-175 -29q-74 0 -136.5 19.5t-108.5 57.5t-71.5 94t-25.5 128z M199 274q0 -53 20.5 -92t54 -64.5t77.5 -37.5t89 -12q86 0 160 34.5t123 81.5v365q-88 -2 -182.5 -12.5t-170 -40t-123.5 -83t-48 -139.5z" />
<glyph unicode="b" horiz-adv-x="1091" d="M147 41v1325h113v-436q55 31 122 51t150 20q96 0 179.5 -31.5t146 -95t99 -158.5t36.5 -220q0 -119 -39 -215.5t-106.5 -164t-157.5 -103.5t-196 -36q-109 0 -197.5 19.5t-149.5 44.5zM260 106q49 -18 108.5 -29t108.5 -11q90 0 166 30.5t128 88t81 136t29 175.5 q0 98 -28 175t-78 130t-117.5 81.5t-145.5 28.5q-70 0 -133.5 -21.5t-118.5 -60.5v-723z" />
<glyph unicode="c" horiz-adv-x="978" d="M100 487q0 129 37 225.5t98.5 161t142.5 96t171 31.5q80 0 138 -19t100 -50t72 -68t46 -73l-88 -50q-39 74 -102.5 122t-165.5 48q-76 0 -137.5 -31.5t-105.5 -88t-68.5 -133t-24.5 -169.5q0 -96 24.5 -172.5t70.5 -132t110.5 -85t142.5 -29.5q180 0 281 161l82 -51 q-53 -92 -145.5 -147.5t-223.5 -55.5q-96 0 -179 34t-144.5 99.5t-96.5 159.5t-35 217z" />
<glyph unicode="d" horiz-adv-x="1091" d="M98 494q0 111 35 204t97.5 160.5t149.5 105t193 37.5q98 0 159 -19t102 -44v428h112v-1366h-98l-14 86q-49 -51 -120 -80t-167 -29q-104 0 -187.5 37t-140.5 104.5t-89 163t-32 212.5zM211 489q0 -190 91 -305.5t257 -115.5q88 0 157.5 34.5t117.5 92.5v636 q-35 33 -103.5 56.5t-142.5 23.5q-86 0 -156 -31.5t-119 -88t-75.5 -133.5t-26.5 -169z" />
<glyph unicode="e" horiz-adv-x="1044" d="M100 489q0 119 33 214.5t91.5 161t138 101t178.5 35.5q102 0 181 -35.5t132 -100t81 -157t32 -202.5h-758q0 -207 92 -322.5t268 -115.5q111 0 181.5 50t115.5 126l82 -49q-27 -43 -59.5 -82t-78.5 -70t-106.5 -48.5t-138.5 -17.5q-219 0 -342 134t-123 378zM217 596h625 q-6 82 -34 142.5t-70 98t-93 56t-104 18.5q-123 0 -211 -74.5t-113 -240.5z" />
<glyph unicode="f" horiz-adv-x="565" d="M37 885v90h151v115q0 156 74 229.5t199 73.5q74 0 122 -14.5t79 -30.5l-39 -88q-29 16 -68 28t-90 12q-76 0 -120 -46t-44 -173v-106h240v-90h-240v-885h-113v885h-151z" />
<glyph unicode="g" horiz-adv-x="1079" d="M86 -115q0 92 47 149.5t119 90.5q-37 16 -64.5 45t-27.5 78q0 53 41 88t98 51q-31 16 -61.5 41t-56 58.5t-42 78.5t-16.5 105q0 78 32.5 139t91 104t134.5 65.5t160 22.5q80 0 140 -15t110 -40l127 131l75 -63l-121 -127q37 -35 64 -89.5t27 -125.5q0 -80 -34 -142.5 t-92.5 -106.5t-136 -67.5t-163.5 -23.5q-43 0 -83 5t-67 11q-43 -10 -79 -30.5t-36 -55.5q0 -47 64.5 -67.5t220.5 -28.5q88 -4 168 -14.5t129 -24.5q102 -29 149.5 -87t47.5 -151q0 -147 -123 -223t-338 -76q-246 0 -375 71.5t-129 223.5zM188 -104q0 -59 30 -101.5t82 -68 t126 -38t162 -12.5q164 0 262 51.5t98 153.5q0 100 -80 139q-37 23 -112.5 34.5t-200.5 19.5q-55 4 -117 10q-59 6 -92 12q-63 -23 -110.5 -72.5t-47.5 -127.5zM231 670q0 -113 84 -180.5t217 -67.5q59 0 116 13.5t104 44t74.5 79.5t27.5 119q0 61 -29.5 106t-74.5 73 t-99.5 41t-107.5 13q-61 0 -116.5 -16t-98.5 -47t-70 -76t-27 -102z" />
<glyph unicode="h" horiz-adv-x="1116" d="M147 0v1366h113v-475q61 47 142 78.5t192 31.5q199 0 290 -96t91 -282v-623h-115v621q0 154 -71.5 221t-213.5 67q-94 0 -171.5 -35.5t-143.5 -82.5v-791h-113z" />
<glyph unicode="i" horiz-adv-x="411" d="M127 1276q0 39 22.5 64.5t55.5 25.5q35 0 58.5 -25.5t23.5 -64.5q0 -41 -23.5 -66.5t-58.5 -25.5q-33 0 -55.5 26.5t-22.5 65.5zM147 0v975h115v-975h-115z" />
<glyph unicode="j" horiz-adv-x="405" d="M-25 -322q94 55 131 129t37 187v981h115v-981q0 -152 -57.5 -243t-167.5 -152zM121 1276q0 39 22.5 64.5t57.5 25.5q31 0 54.5 -25.5t23.5 -64.5q0 -41 -24 -66.5t-54 -25.5q-35 0 -57.5 26.5t-22.5 65.5z" />
<glyph unicode="k" horiz-adv-x="978" d="M147 0v1366h113v-811l469 420h143l-346 -316l455 -659h-133l-406 586l-182 -162v-424h-113z" />
<glyph unicode="l" horiz-adv-x="407" d="M147 0v1366h113v-1366h-113z" />
<glyph unicode="m" horiz-adv-x="1708" d="M147 0v975h105l6 -90q51 41 133 78.5t189 37.5q98 0 165.5 -29.5t110.5 -86.5q57 47 142 81.5t202 34.5q188 0 277.5 -99t89.5 -284v-618h-113v627q0 139 -69.5 209.5t-196.5 70.5q-94 0 -167 -32.5t-124 -73.5q12 -31 21.5 -75t9.5 -97v-629h-115v637q0 57 -14.5 106.5 t-44 86t-77.5 57t-116 20.5q-88 0 -167 -41t-134 -86v-780h-113z" />
<glyph unicode="n" horiz-adv-x="1120" d="M147 0v975h105l8 -90q66 47 145.5 81.5t196.5 34.5q377 0 377 -389v-612h-113v623q0 135 -68.5 210.5t-209.5 75.5q-104 0 -185 -39t-143 -88v-782h-113z" />
<glyph unicode="o" horiz-adv-x="1116" d="M100 496q0 98 30 189t86 162t141 112.5t200 41.5q113 0 199 -43t143 -113.5t87 -162.5t30 -190q0 -100 -30 -193.5t-87 -164.5t-143 -114t-199 -43t-199 43q-84 45 -141 117t-87 166.5t-30 192.5zM213 496q0 -80 21.5 -157t64.5 -138q43 -59 107.5 -96t150.5 -37 q88 0 152.5 37.5t107.5 98t64.5 136.5t21.5 154t-21.5 152.5t-64.5 134t-107.5 95t-152.5 35.5t-152.5 -35.5t-107.5 -94t-63.5 -133t-20.5 -152.5z" />
<glyph unicode="p" horiz-adv-x="1089" d="M147 -387v1362h103l10 -82q51 43 124 75.5t175 32.5q106 0 188 -36.5t136.5 -103t81 -159t26.5 -204.5q0 -117 -34.5 -213.5t-99 -165t-155 -105.5t-198.5 -37q-82 0 -141.5 17.5t-102.5 42.5v-424h-113zM260 139q41 -29 99.5 -49t132.5 -20q86 0 158.5 29.5t122.5 84 t78 133t28 177.5q0 86 -18.5 161.5t-60.5 132t-106.5 90t-158.5 33.5q-84 0 -153 -35.5t-122 -84.5v-652z" />
<glyph unicode="q" horiz-adv-x="1093" d="M98 487q0 117 39 211.5t107.5 162t164 104t207.5 36.5q102 0 188.5 -12t141.5 -24v-1352h-112v438q-45 -29 -115 -51.5t-166 -22.5t-179 35t-144.5 100.5t-96.5 159.5t-35 215zM213 483q0 -102 29.5 -179t81 -130t118 -79.5t138.5 -26.5q80 0 147.5 28.5t106.5 61.5v727 q-41 10 -94.5 18t-116.5 8q-80 0 -156 -28.5t-132 -83t-89 -134.5t-33 -182z" />
<glyph unicode="r" horiz-adv-x="645" d="M147 0v975h103l8 -98q45 51 110.5 86.5t143.5 35.5q43 0 76 -4t55 -10l-20 -100q-47 16 -119 16q-70 0 -135.5 -41t-108.5 -90v-770h-113z" />
<glyph unicode="s" horiz-adv-x="833" d="M76 150l88 53q41 -61 104.5 -98t159.5 -37q109 0 172.5 45t63.5 135q0 94 -64.5 146t-208.5 100q-147 47 -209.5 106t-62.5 162q0 106 84 172.5t231 66.5q121 0 198 -41.5t124 -109.5l-84 -57q-37 51 -96.5 85.5t-141.5 34.5q-102 0 -153.5 -42t-51.5 -105 q0 -37 12.5 -63.5t41 -49t80 -44t124.5 -46.5q145 -47 215 -116.5t70 -192.5q0 -135 -98.5 -206t-245.5 -71q-141 0 -224 50.5t-128 122.5z" />
<glyph unicode="t" horiz-adv-x="641" d="M37 885v90h176v262h113v-262h268v-90h-272v-678q0 -78 33.5 -108.5t90.5 -30.5q41 0 72 11t60 34l49 -78q-43 -29 -85 -43.5t-118 -14.5q-96 0 -153.5 54.5t-57.5 158.5v695h-176z" />
<glyph unicode="u" horiz-adv-x="1114" d="M139 346v629h115v-629q0 -147 76 -211.5t205 -64.5q98 0 179 37.5t138 97.5v770h113v-975h-101l-8 96q-57 -47 -135 -83t-201 -36q-180 0 -280.5 89.5t-100.5 279.5z" />
<glyph unicode="v" horiz-adv-x="911" d="M0 975h123l338 -846l334 846h116l-393 -975h-121z" />
<glyph unicode="w" horiz-adv-x="1396" d="M0 975h119l266 -803l270 803h78l271 -803l274 803h119l-346 -975h-90l-267 786l-268 -786h-88z" />
<glyph unicode="x" horiz-adv-x="819" d="M0 0l350 498l-334 477h123l275 -391l266 391h121l-328 -477l344 -498h-121l-282 414l-289 -414h-125z" />
<glyph unicode="y" horiz-adv-x="937" d="M0 975h127l346 -834l344 834h121l-522 -1239q-37 -84 -93.5 -117t-136.5 -33q-49 0 -97 9.5t-81 23.5l35 92q29 -10 66.5 -21.5t72.5 -11.5q53 0 84 23t56 84l92 215z" />
<glyph unicode="z" horiz-adv-x="970" d="M88 0v106l651 779h-626v90h745v-109l-651 -776h665v-90h-784z" />
<glyph unicode="{" horiz-adv-x="503" d="M49 645v76q92 14 136 60t44 163v307q0 133 65.5 187.5t176.5 58.5l8 -78q-96 -4 -122.5 -52t-26.5 -134v-289q0 -113 -37 -174t-143 -88q106 -27 143 -86t37 -172v-289q0 -84 26.5 -133t122.5 -55l-8 -76q-111 2 -176.5 57.5t-65.5 188.5v307q0 115 -44 162t-136 59z" />
<glyph unicode="|" horiz-adv-x="438" d="M166 -152v1663h106v-1663h-106z" />
<glyph unicode="}" horiz-adv-x="505" d="M27 -53q92 6 119.5 55t27.5 133v289q0 55 8 98t28.5 74t55.5 52.5t88 33.5q-106 27 -143 88t-37 174v289q0 84 -27.5 133t-119.5 53l8 78q109 -4 174 -58.5t65 -187.5v-307q0 -59 11.5 -98t34 -64.5t55.5 -40t82 -20.5v-76q-96 -12 -139.5 -59t-43.5 -162v-307 q0 -133 -65.5 -188.5t-173.5 -57.5z" />
<glyph unicode="~" horiz-adv-x="935" d="M10 1075q18 123 92 187.5t185 64.5q90 0 148.5 -36t111.5 -74q31 -23 61.5 -39.5t67.5 -16.5q74 0 106.5 48t42.5 120h97q-4 -68 -27 -116t-56.5 -80.5t-76.5 -48t-88 -15.5q-70 0 -121 29.5t-98 64.5q-41 29 -82 50.5t-90 21.5q-70 0 -118 -41t-61 -119h-94z" />
<glyph unicode="&#xa1;" horiz-adv-x="378" d="M102 903q0 39 24 68.5t62 29.5q37 0 61.5 -28.5t24.5 -69.5t-24.5 -69.5t-61.5 -28.5q-39 0 -62.5 28.5t-23.5 69.5zM129 -397v936h115v-936h-115z" />
<glyph unicode="&#xa2;" d="M205 690q0 84 26.5 151.5t71.5 116t105.5 77t128.5 38.5v293h90v-293q76 -2 137 -29.5t100 -62.5l-57 -72q-80 70 -180 72v-600q102 6 176 70l51 -76q-43 -37 -101.5 -60.5t-125.5 -27.5v-295h-90v297q-150 25 -241 126t-91 275zM317 690q0 -137 60.5 -209.5t159.5 -95.5 v594q-92 -10 -156 -83t-64 -206z" />
<glyph unicode="&#xa3;" d="M76 528v97h147v346q0 203 99.5 305t279.5 102q72 0 126 -16t96 -44t75 -68t55 -85l-108 -49q-31 63 -89.5 111.5t-156.5 48.5q-131 0 -197.5 -77t-66.5 -236v-338h475v-97h-475v-430h635v-98h-746v528h-149z" />
<glyph unicode="&#xa4;" horiz-adv-x="1435" d="M37 137l336 336q-104 137 -105 285q0 139 94 276l-325 322l84 71l315 -319q143 104 293 104q76 0 143.5 -22.5t135.5 -73.5l309 311l84 -71l-316 -309q53 -72 79 -141.5t26 -147.5t-27.5 -152t-85.5 -145l324 -326l-74 -65l-323 323q-70 -47 -136.5 -68.5t-138.5 -21.5 q-145 0 -285 98l-333 -331zM373 756q0 -74 27.5 -138.5t74.5 -113.5q49 -47 113.5 -75t140.5 -28q74 0 139.5 28t113.5 76t75.5 112.5t27.5 138.5t-27.5 138t-75.5 113.5t-113.5 77t-139.5 27.5q-76 0 -140.5 -27.5t-112.5 -77t-75.5 -113.5t-27.5 -138z" />
<glyph unicode="&#xa5;" d="M45 1350h131l365 -605l381 605h125l-328 -510h203v-97h-265l-61 -96v-106h324v-97h-324v-444h-119v444h-330v97h330v104l-59 98h-271v97h211z" />
<glyph unicode="&#xa6;" horiz-adv-x="438" d="M166 -152v564h106v-564h-106zM166 946v565h106v-565h-106z" />
<glyph unicode="&#xa7;" horiz-adv-x="905" d="M135 -178l64 72q43 -47 99 -76t126 -29q100 0 157.5 42t57.5 120q0 39 -12.5 71.5t-43 67.5t-84 77t-137.5 97q-115 80 -170 151.5t-55 170.5q0 117 76 183.5t190 96.5q-39 33 -73.5 66t-62 68.5t-44 77.5t-16.5 93q0 100 77.5 161t207.5 61q98 0 162.5 -33t101.5 -74 l-64 -63q-35 37 -84 61.5t-121 24.5q-84 0 -131 -36t-47 -104q0 -37 16.5 -70.5t46 -68.5t72.5 -72.5t101 -83.5q72 -61 121 -107t75.5 -86t36.5 -81t10 -90q0 -106 -68.5 -170t-164.5 -96q51 -39 88 -72t59.5 -65.5t32.5 -68.5t10 -79q0 -57 -24.5 -104.5t-68.5 -80 t-101 -51t-121 -18.5q-100 0 -170 32t-125 85zM242 588q0 -45 16 -82t49 -71t76 -68q45 -33 98 -72q90 27 147.5 77t57.5 134q0 41 -11 75.5t-37 70.5t-67 74t-98 83q-98 -23 -164.5 -74t-66.5 -147z" />
<glyph unicode="&#xa8;" horiz-adv-x="507" d="M0 1321q0 37 24.5 63.5t59.5 26.5t58.5 -26.5t23.5 -63.5q0 -39 -23.5 -64.5t-58.5 -25.5t-59.5 25.5t-24.5 64.5zM342 1321q0 37 24.5 63.5t59.5 26.5t58.5 -26.5t23.5 -63.5q0 -39 -23.5 -64.5t-58.5 -25.5t-59.5 25.5t-24.5 64.5z" />
<glyph unicode="&#xa9;" horiz-adv-x="1669" d="M88 608q0 154 50 292t147.5 242.5t235.5 166t313 61.5q174 0 313 -61.5t235.5 -166t147.5 -242.5t51 -292t-51 -293t-147.5 -244.5t-235.5 -167t-313 -61.5t-314 62q-137 61 -234.5 166.5t-147.5 244.5t-50 293zM186 608q0 -131 44 -254t126 -217q84 -94 205 -151.5 t273 -57.5q154 0 274.5 57.5t202.5 151.5t126 217t44 254t-44 254t-126 217.5t-203 150.5t-274 56q-152 0 -273 -56t-204 -150.5t-127 -217.5t-44 -254zM469 604q0 119 29.5 207t83 145.5t122 85t146.5 27.5q109 0 179.5 -48t105.5 -110l-76 -43q-35 53 -81 86t-132 33 q-123 0 -201 -98t-78 -285q0 -180 81 -276.5t202 -96.5q74 0 127 34t90 89l72 -51q-47 -70 -115 -111.5t-176 -41.5q-78 0 -146.5 26.5t-121 81.5t-82 141t-29.5 205z" />
<glyph unicode="&#xaa;" horiz-adv-x="686" d="M61 967q0 74 38 126t101.5 84.5t144.5 48t169 15.5v37q0 76 -46 112.5t-116 36.5q-109 0 -178 -81l-68 45q37 49 99.5 82.5t152.5 33.5q123 0 188.5 -62.5t65.5 -191.5v-489h-90l-4 59q-31 -27 -83 -52.5t-122 -25.5q-49 0 -95 14.5t-81 42t-55.5 69t-20.5 96.5zM162 967 q0 -72 46 -106t111 -34q63 0 111.5 25t83.5 59v250q-68 0 -131.5 -10t-112.5 -33.5t-78.5 -60.5t-29.5 -90z" />
<glyph unicode="&#xab;" horiz-adv-x="997" d="M63 514l383 408l76 -62l-313 -340l348 -336l-74 -63zM449 514l387 399l73 -61l-309 -332l336 -325l-70 -64z" />
<glyph unicode="&#xac;" d="M68 750v100h966v-619h-106v519h-860z" />
<glyph unicode="&#xad;" horiz-adv-x="649" d="M96 489v107h457v-107h-457z" />
<glyph unicode="&#xae;" horiz-adv-x="1669" d="M88 608q0 154 50 292t147.5 242.5t235.5 166t313 61.5q174 0 313 -61.5t235.5 -166t147.5 -242.5t51 -292t-51 -293t-147.5 -244.5t-235.5 -167t-313 -61.5t-314 62q-137 61 -234.5 166.5t-147.5 244.5t-50 293zM186 608q0 -131 44 -254t126 -217q84 -94 205 -151.5 t273 -57.5q154 0 274.5 57.5t202.5 151.5t126 217t44 254t-44 254t-126 217.5t-203 150.5t-274 56q-152 0 -273 -56t-204 -150.5t-127 -217.5t-44 -254zM567 172v887h291q139 0 217 -63.5t78 -176.5q0 -59 -17.5 -102t-48 -72t-71.5 -46t-86 -26l239 -401h-108l-236 395 h-166v-395h-92zM659 649h193q96 0 150.5 39t54.5 131q0 80 -52.5 121t-144.5 41h-201v-332z" />
<glyph unicode="&#xaf;" horiz-adv-x="743" d="M63 1253v93h617v-93h-617z" />
<glyph unicode="&#xb0;" horiz-adv-x="765" d="M88 1079q0 57 23.5 108.5t63.5 91.5t93.5 63.5t114.5 23.5q59 0 113.5 -22.5t95.5 -62.5t63.5 -92t22.5 -110q0 -59 -22.5 -110t-63.5 -91t-95.5 -62.5t-113.5 -22.5q-61 0 -115 22q-53 23 -93 63t-63.5 91t-23.5 110zM180 1079q0 -41 17 -78q16 -35 43.5 -61.5 t64.5 -41.5t78 -15q45 0 82 16t64.5 43t43 62.5t15.5 74.5t-15.5 75t-42 63.5t-64.5 44t-83 16.5q-86 0 -144.5 -57.5t-58.5 -141.5z" />
<glyph unicode="&#xb1;" d="M70 0v98h970v-98h-970zM74 692v101h432v454h104v-454h430v-101h-430v-452h-104v452h-432z" />
<glyph unicode="&#xb2;" horiz-adv-x="618" d="M68 1239q37 59 92 99t153 40q111 0 165 -49t54 -133q0 -78 -40.5 -140.5t-98.5 -125.5q-35 -37 -84 -83t-86 -79h330v-78h-469v55q66 61 120 111.5t109 110.5q57 59 88 112.5t31 106.5q0 51 -31.5 81.5t-93.5 30.5q-55 0 -93 -24.5t-71 -75.5z" />
<glyph unicode="&#xb3;" horiz-adv-x="618" d="M57 801l78 43q31 -41 70 -63.5t96 -22.5q70 0 110 31.5t40 84.5q0 66 -50.5 98t-126.5 34v67q70 6 117 36t47 83q0 47 -38 77.5t-101 30.5q-92 0 -152 -83l-69 45q39 55 97 85.5t136 30.5q96 0 163 -49t67 -131q0 -57 -37 -96t-92 -60q61 -16 100 -55t39 -110 q0 -94 -72.5 -145.5t-175.5 -51.5q-166 0 -246 121z" />
<glyph unicode="&#xb4;" horiz-adv-x="628" d="M98 1180l357 286l75 -86l-380 -260z" />
<glyph unicode="&#xb5;" horiz-adv-x="1196" d="M172 -387v1362h115v-615q0 -68 22.5 -122t60.5 -91.5t91 -58t114 -20.5t111.5 14t89.5 38.5t64.5 55.5t38.5 64q12 29 14 64.5t2 70.5v600h113v-762q0 -70 14 -107.5t70 -37.5q18 0 32.5 4t30.5 8l16 -84q-18 -8 -44.5 -13.5t-51.5 -5.5q-76 0 -119 37t-53 105 q-55 -63 -134 -102.5t-196 -39.5q-98 0 -174.5 37t-115.5 107v-508h-111z" />
<glyph unicode="&#xb6;" horiz-adv-x="1028" d="M70 979q0 80 30.5 150.5t83 123t125 83t154.5 30.5h131v-1663h-107v889q-90 0 -166.5 30.5t-133 83t-87 123t-30.5 150.5zM780 -297v1663h109v-1663h-109z" />
<glyph unicode="&#xb7;" horiz-adv-x="587" d="M193 756q0 43 28.5 74.5t71.5 31.5t71.5 -31.5t28.5 -74.5t-28.5 -75t-71.5 -32t-71.5 32t-28.5 75z" />
<glyph unicode="&#xb8;" horiz-adv-x="514" d="M4 -356l111 266h131l-154 -266h-88z" />
<glyph unicode="&#xb9;" horiz-adv-x="618" d="M84 1241l223 125h90v-676h-98v576l-172 -95z" />
<glyph unicode="&#xba;" horiz-adv-x="798" d="M61 1135q0 72 20.5 140t62.5 120.5t105.5 84t147.5 31.5t147.5 -31.5t105.5 -85t63.5 -121t21.5 -140.5q0 -72 -21.5 -140.5t-63.5 -123t-105.5 -87t-147.5 -32.5q-82 0 -145 32q-63 33 -105.5 87.5t-64 124t-21.5 141.5zM162 1135q0 -57 14 -111.5t43 -97.5 q31 -43 75 -70t103 -27q61 0 106.5 27t74 70t44 97t15.5 112q0 55 -15.5 109t-44 95t-73.5 67t-107 26q-59 0 -104 -26t-75 -67t-43 -95t-13 -109z" />
<glyph unicode="&#xbb;" horiz-adv-x="997" d="M74 850l71 59l402 -387l-402 -395l-69 68l323 325zM455 860l73 62l406 -400l-399 -401l-70 63l323 336z" />
<glyph unicode="&#xbc;" horiz-adv-x="1558" d="M79 59l1328 1313l69 -65l-1333 -1317zM86 1241l223 125h90v-676h-98v576l-172 -95zM922 190v76l379 412h78v-416h94v-72h-94v-184h-97v184h-360zM1022 262h260v285z" />
<glyph unicode="&#xbd;" horiz-adv-x="1558" d="M57 59l1328 1313l69 -65l-1333 -1317zM90 1241l223 125h90v-676h-98v576l-172 -95zM973 555q37 59 92 99t153 40q111 0 165 -49t54 -133q0 -78 -40.5 -140.5t-98.5 -125.5q-35 -37 -84 -83t-86 -79h330v-78h-469v55q66 61 120 111.5t109 110.5q57 59 88 112.5t31 106.5 q0 51 -31.5 81.5t-93.5 30.5q-55 0 -93 -24.5t-71 -75.5z" />
<glyph unicode="&#xbe;" horiz-adv-x="1558" d="M129 59l1328 1313l69 -65l-1333 -1317zM92 801l78 43q31 -41 70 -63.5t96 -22.5q70 0 110 31.5t40 84.5q0 66 -50.5 98t-126.5 34v67q70 6 117 36t47 83q0 47 -38 77.5t-101 30.5q-92 0 -152 -83l-69 45q39 55 97 85.5t136 30.5q96 0 163 -49t67 -131q0 -57 -37 -96 t-92 -60q61 -16 100 -55t39 -110q0 -94 -72.5 -145.5t-175.5 -51.5q-166 0 -246 121zM907 190v76l379 412h78v-416h94v-72h-94v-184h-97v184h-360zM1007 262h260v285z" />
<glyph unicode="&#xbf;" horiz-adv-x="757" d="M16 -96q0 109 55.5 197.5t135.5 168.5q39 39 65.5 71t43 59.5t23.5 55t7 62.5v53h111v-61q0 -92 -46 -159.5t-106 -127.5q-43 -43 -73.5 -80t-53 -74.5t-34 -78.5t-11.5 -92q0 -104 66.5 -162t183.5 -58q51 0 95 15.5t81 40t65.5 55.5t53.5 64l82 -56 q-25 -37 -60.5 -73.5t-82 -67.5t-106.5 -50.5t-132 -19.5q-174 0 -268.5 86.5t-94.5 231.5zM315 903q0 39 23.5 68.5t62.5 29.5q37 0 61.5 -28.5t24.5 -69.5t-24.5 -69.5t-61.5 -28.5q-39 0 -62.5 28.5t-23.5 69.5z" />
<glyph unicode="&#xc0;" horiz-adv-x="1181" d="M0 0l545 1366h88l549 -1366h-121l-176 438h-592l-172 -438h-121zM332 541h514l-262 659zM332 1716l80 82l354 -286l-51 -56z" />
<glyph unicode="&#xc1;" horiz-adv-x="1181" d="M0 0l545 1366h88l549 -1366h-121l-176 438h-592l-172 -438h-121zM332 541h514l-262 659zM387 1516l357 286l75 -86l-380 -260z" />
<glyph unicode="&#xc2;" horiz-adv-x="1181" d="M0 0l545 1366h88l549 -1366h-121l-176 438h-592l-172 -438h-121zM332 541h514l-262 659zM278 1499l271 307h86l264 -307l-72 -47l-235 266l-240 -266z" />
<glyph unicode="&#xc3;" horiz-adv-x="1181" d="M0 0l545 1366h88l549 -1366h-121l-176 438h-592l-172 -438h-121zM332 541h514l-262 659zM221 1567q31 72 83 118t124 46q43 0 86 -19.5t84 -42.5q23 -14 54.5 -31.5t62.5 -17.5q74 0 131 109l76 -35q-31 -78 -83.5 -120t-123.5 -42q-35 0 -73 17.5t-79 39.5 q-41 23 -69.5 38.5t-63.5 15.5q-74 0 -131 -113z" />
<glyph unicode="&#xc4;" horiz-adv-x="1181" d="M0 0l545 1366h88l549 -1366h-121l-176 438h-592l-172 -438h-121zM332 541h514l-262 659zM330 1659q0 37 24.5 63.5t59.5 26.5t58.5 -26.5t23.5 -63.5q0 -39 -23.5 -64.5t-58.5 -25.5t-59.5 25.5t-24.5 64.5zM672 1659q0 37 24.5 63.5t59.5 26.5t58.5 -26.5t23.5 -63.5 q0 -39 -23.5 -64.5t-58.5 -25.5t-59.5 25.5t-24.5 64.5z" />
<glyph unicode="&#xc5;" horiz-adv-x="1185" d="M2 0l541 1358q-59 12 -99 55q-53 61 -53 141q0 82 54.5 142.5t148.5 60.5q92 0 145.5 -60.5t53.5 -140.5q0 -41 -13.5 -76.5t-39 -64.5t-64.5 -45q-18 -8 -39 -12l549 -1358h-123l-176 438h-592l-172 -438h-121zM334 541h514l-262 659zM465 1556q0 -53 35 -95t94 -42 q55 0 91 41t36 94v2q0 53 -36 94.5t-91 41.5q-59 0 -94 -41.5t-35 -94.5z" />
<glyph unicode="&#xc6;" horiz-adv-x="1779" d="M0 0l866 1366h846v-100h-672v-490h480v-102h-480v-574h713v-100h-831v444h-508l-285 -444h-129zM475 547h447v710z" />
<glyph unicode="&#xc7;" horiz-adv-x="1193" d="M104 678q0 174 44.5 307t121 223t178 137.5t216.5 47.5q178 0 291.5 -77t174.5 -200l-98 -51q-25 43 -56.5 84t-76.5 72.5t-101.5 50t-123.5 18.5q-96 0 -177 -40t-141.5 -117.5t-94.5 -192.5t-34 -264q0 -133 34 -243.5t94.5 -189.5t146.5 -123t188 -44q70 0 124 17.5 t97 47t78 69.5t60 85l94 -53q-33 -57 -75 -106.5t-97.5 -85.5t-125 -56.5t-157.5 -20.5q-135 0 -243.5 49.5t-184.5 141.5t-116 222t-40 292zM522 -356l111 266h131l-154 -266h-88z" />
<glyph unicode="&#xc8;" horiz-adv-x="1048" d="M174 0v1366h805v-100h-686v-490h495v-102h-497v-574h731v-100h-848zM323 1716l80 82l354 -286l-51 -56z" />
<glyph unicode="&#xc9;" horiz-adv-x="1048" d="M174 0v1366h805v-100h-686v-490h495v-102h-497v-574h731v-100h-848zM385 1516l357 286l75 -86l-380 -260z" />
<glyph unicode="&#xca;" horiz-adv-x="1048" d="M174 0v1366h805v-100h-686v-490h495v-102h-497v-574h731v-100h-848zM260 1499l271 307h86l264 -307l-72 -47l-235 266l-240 -266z" />
<glyph unicode="&#xcb;" horiz-adv-x="1048" d="M174 0v1366h805v-100h-686v-490h495v-102h-497v-574h731v-100h-848zM322 1675q0 37 24.5 63.5t59.5 26.5t58.5 -26.5t23.5 -63.5q0 -39 -23.5 -64.5t-58.5 -25.5t-59.5 25.5t-24.5 64.5zM664 1675q0 37 24.5 63.5t59.5 26.5t58.5 -26.5t23.5 -63.5q0 -39 -23.5 -64.5 t-58.5 -25.5t-59.5 25.5t-24.5 64.5z" />
<glyph unicode="&#xcc;" horiz-adv-x="466" d="M174 0v1366h119v-1366h-119zM6 1716l80 82l354 -286l-51 -56z" />
<glyph unicode="&#xcd;" horiz-adv-x="466" d="M174 0v1366h119v-1366h-119zM43 1516l357 286l75 -86l-380 -260z" />
<glyph unicode="&#xce;" horiz-adv-x="466" d="M174 0v1366h119v-1366h-119zM-68 1499l271 307h86l264 -307l-72 -47l-235 266l-240 -266z" />
<glyph unicode="&#xcf;" horiz-adv-x="466" d="M174 0v1366h119v-1366h-119zM-12 1657q0 37 24.5 63.5t59.5 26.5t58.5 -26.5t23.5 -63.5q0 -39 -23.5 -64.5t-58.5 -25.5t-59.5 25.5t-24.5 64.5zM330 1657q0 37 24.5 63.5t59.5 26.5t58.5 -26.5t23.5 -63.5q0 -39 -23.5 -64.5t-58.5 -25.5t-59.5 25.5t-24.5 64.5z" />
<glyph unicode="&#xd0;" horiz-adv-x="1302" d="M4 678v96h170v592h352q96 0 189.5 -17.5t169.5 -54.5q154 -74 240.5 -222t86.5 -370q0 -274 -114.5 -442t-317.5 -227q-55 -16 -120.5 -24.5t-133.5 -8.5h-352v678h-170zM291 100h241q57 4 106.5 9.5t94.5 19.5q164 53 260.5 190.5t96.5 374.5q0 180 -61.5 300 t-172.5 188q-70 41 -158 61.5t-184 20.5h-223v-490h356v-96h-356v-578z" />
<glyph unicode="&#xd1;" horiz-adv-x="1390" d="M174 0v1366h125l803 -1149v1149h115v-1366h-103l-823 1178v-1178h-117zM358 1567q31 72 83 118t124 46q43 0 86 -19.5t84 -42.5q23 -14 54.5 -31.5t62.5 -17.5q74 0 131 109l76 -35q-31 -78 -83.5 -120t-123.5 -42q-35 0 -73 17.5t-79 39.5q-41 23 -69.5 38.5t-63.5 15.5 q-74 0 -131 -113z" />
<glyph unicode="&#xd2;" horiz-adv-x="1382" d="M104 684q0 137 38 265t113 226.5t184.5 158t254.5 59.5q150 0 259.5 -60.5t181 -160t107.5 -227.5t36 -261t-36 -261t-107.5 -227.5t-181 -161t-259.5 -61.5t-262 60q-111 61 -183.5 160.5t-108.5 227.5t-36 263zM227 684q0 -111 29 -220.5t86 -197.5q57 -86 145 -139 t207 -53t205 54t143.5 140t85 195.5t27.5 220.5t-26.5 219.5t-84 194.5t-144.5 140t-206 54q-123 0 -211 -53t-144 -140t-84 -195.5t-28 -219.5zM469 1716l80 82l354 -286l-51 -56z" />
<glyph unicode="&#xd3;" horiz-adv-x="1382" d="M104 684q0 137 38 265t113 226.5t184.5 158t254.5 59.5q150 0 259.5 -60.5t181 -160t107.5 -227.5t36 -261t-36 -261t-107.5 -227.5t-181 -161t-259.5 -61.5t-262 60q-111 61 -183.5 160.5t-108.5 227.5t-36 263zM227 684q0 -111 29 -220.5t86 -197.5q57 -86 145 -139 t207 -53t205 54t143.5 140t85 195.5t27.5 220.5t-26.5 219.5t-84 194.5t-144.5 140t-206 54q-123 0 -211 -53t-144 -140t-84 -195.5t-28 -219.5zM483 1516l357 286l75 -86l-380 -260z" />
<glyph unicode="&#xd4;" horiz-adv-x="1382" d="M104 684q0 137 38 265t113 226.5t184.5 158t254.5 59.5q150 0 259.5 -60.5t181 -160t107.5 -227.5t36 -261t-36 -261t-107.5 -227.5t-181 -161t-259.5 -61.5t-262 60q-111 61 -183.5 160.5t-108.5 227.5t-36 263zM227 684q0 -111 29 -220.5t86 -197.5q57 -86 145 -139 t207 -53t205 54t143.5 140t85 195.5t27.5 220.5t-26.5 219.5t-84 194.5t-144.5 140t-206 54q-123 0 -211 -53t-144 -140t-84 -195.5t-28 -219.5zM381 1499l271 307h86l264 -307l-72 -47l-235 266l-240 -266z" />
<glyph unicode="&#xd5;" horiz-adv-x="1382" d="M104 684q0 137 38 265t113 226.5t184.5 158t254.5 59.5q150 0 259.5 -60.5t181 -160t107.5 -227.5t36 -261t-36 -261t-107.5 -227.5t-181 -161t-259.5 -61.5t-262 60q-111 61 -183.5 160.5t-108.5 227.5t-36 263zM227 684q0 -111 29 -220.5t86 -197.5q57 -86 145 -139 t207 -53t205 54t143.5 140t85 195.5t27.5 220.5t-26.5 219.5t-84 194.5t-144.5 140t-206 54q-123 0 -211 -53t-144 -140t-84 -195.5t-28 -219.5zM342 1567q31 72 83 118t124 46q43 0 86 -19.5t84 -42.5q23 -14 54.5 -31.5t62.5 -17.5q74 0 131 109l76 -35 q-31 -78 -83.5 -120t-123.5 -42q-35 0 -73 17.5t-79 39.5q-41 23 -69.5 38.5t-63.5 15.5q-74 0 -131 -113z" />
<glyph unicode="&#xd6;" horiz-adv-x="1382" d="M104 684q0 137 38 265t113 226.5t184.5 158t254.5 59.5q150 0 259.5 -60.5t181 -160t107.5 -227.5t36 -261t-36 -261t-107.5 -227.5t-181 -161t-259.5 -61.5t-262 60q-111 61 -183.5 160.5t-108.5 227.5t-36 263zM227 684q0 -111 29 -220.5t86 -197.5q57 -86 145 -139 t207 -53t205 54t143.5 140t85 195.5t27.5 220.5t-26.5 219.5t-84 194.5t-144.5 140t-206 54q-123 0 -211 -53t-144 -140t-84 -195.5t-28 -219.5zM444 1675q0 37 24.5 63.5t59.5 26.5t58.5 -26.5t23.5 -63.5q0 -39 -23.5 -64.5t-58.5 -25.5t-59.5 25.5t-24.5 64.5zM786 1675 q0 37 24.5 63.5t59.5 26.5t58.5 -26.5t23.5 -63.5q0 -39 -23.5 -64.5t-58.5 -25.5t-59.5 25.5t-24.5 64.5z" />
<glyph unicode="&#xd7;" d="M160 377l319 303l-319 305l73 74l322 -305l322 305l75 -74l-319 -305l319 -303l-75 -76l-322 307l-322 -307z" />
<glyph unicode="&#xd8;" horiz-adv-x="1382" d="M104 684q0 137 38 265t113 226.5t184.5 158t254.5 59.5q133 0 232.5 -48.5t169.5 -125.5l141 167l80 -59l-160 -190q57 -98 89 -214t32 -239q0 -133 -36 -261t-107.5 -227.5t-181 -161t-259.5 -61.5q-121 0 -215 40t-166 108l-131 -158l-76 60l144 172q-72 100 -109 227 t-37 262zM227 684q0 -104 26 -205.5t79 -187.5l692 837q-57 74 -138 119t-192 45q-123 0 -211 -53t-144 -140t-84 -195.5t-28 -219.5zM387 209q55 -61 133 -98t174 -37q119 0 205 54t143.5 140t85 195.5t27.5 220.5q0 92 -20.5 183t-59.5 171z" />
<glyph unicode="&#xd9;" horiz-adv-x="1357" d="M164 455v911h119v-881q0 -188 101 -298.5t294 -110.5t295 107.5t102 301.5v881h119v-911q0 -117 -41 -207t-110.5 -150.5t-165 -92.5t-201.5 -32q-111 0 -204 32t-161.5 92.5t-107.5 150.5t-39 207zM428 1716l80 82l354 -286l-51 -56z" />
<glyph unicode="&#xda;" horiz-adv-x="1357" d="M164 455v911h119v-881q0 -188 101 -298.5t294 -110.5t295 107.5t102 301.5v881h119v-911q0 -117 -41 -207t-110.5 -150.5t-165 -92.5t-201.5 -32q-111 0 -204 32t-161.5 92.5t-107.5 150.5t-39 207zM499 1516l357 286l75 -86l-380 -260z" />
<glyph unicode="&#xdb;" horiz-adv-x="1357" d="M164 455v911h119v-881q0 -188 101 -298.5t294 -110.5t295 107.5t102 301.5v881h119v-911q0 -117 -41 -207t-110.5 -150.5t-165 -92.5t-201.5 -32q-111 0 -204 32t-161.5 92.5t-107.5 150.5t-39 207zM381 1499l271 307h86l264 -307l-72 -47l-235 266l-240 -266z" />
<glyph unicode="&#xdc;" horiz-adv-x="1357" d="M164 455v911h119v-881q0 -188 101 -298.5t294 -110.5t295 107.5t102 301.5v881h119v-911q0 -117 -41 -207t-110.5 -150.5t-165 -92.5t-201.5 -32q-111 0 -204 32t-161.5 92.5t-107.5 150.5t-39 207zM424 1675q0 37 24.5 63.5t59.5 26.5t58.5 -26.5t23.5 -63.5 q0 -39 -23.5 -64.5t-58.5 -25.5t-59.5 25.5t-24.5 64.5zM766 1675q0 37 24.5 63.5t59.5 26.5t58.5 -26.5t23.5 -63.5q0 -39 -23.5 -64.5t-58.5 -25.5t-59.5 25.5t-24.5 64.5z" />
<glyph unicode="&#xdd;" horiz-adv-x="1107" d="M0 1366h133l416 -604l430 604h129l-504 -707v-659h-119v657zM385 1516l357 286l75 -86l-380 -260z" />
<glyph unicode="&#xde;" horiz-adv-x="1105" d="M174 0v1366h119v-256h321q217 0 336 -101.5t119 -297.5q0 -98 -34 -172t-94 -123t-142 -74t-181 -25h-325v-317h-119zM293 418h325q152 0 238 77.5t86 213.5q0 141 -81 221t-245 80h-323v-592z" />
<glyph unicode="&#xdf;" horiz-adv-x="1126" d="M37 885v90h149v65q0 172 103.5 262.5t269.5 90.5q168 0 262 -89.5t113 -256.5q4 -35 4 -76v-78h-166q-80 0 -142.5 -34t-62.5 -105q0 -33 12.5 -57.5t39 -48t70.5 -46t110 -49.5q137 -57 201.5 -128t64.5 -181q0 -123 -88 -195t-227 -72q-66 0 -116 10.5t-89 32t-69 52 t-54 71.5l92 56q37 -66 91 -98.5t145 -32.5q94 0 149 45t55 123q0 86 -61.5 140t-192.5 107q-55 23 -99 47.5t-75.5 55t-48 71.5t-16.5 95q0 98 69.5 156.5t188.5 68.5q27 2 54.5 4t55.5 2q-4 162 -71.5 241t-190.5 79q-131 0 -199.5 -72t-68.5 -223v-1008h-113v885h-149z " />
<glyph unicode="&#xe0;" horiz-adv-x="976" d="M84 276q0 106 57.5 177t147.5 112t203.5 57.5t230.5 18.5v43q0 113 -60.5 170t-173.5 57q-82 0 -144 -33.5t-103 -78.5l-78 57q53 63 131 104t199 41q340 0 340 -327v-674h-101l-8 84q-51 -49 -124 -78t-175 -29q-74 0 -136.5 19.5t-108.5 57.5t-71.5 94t-25.5 128z M199 274q0 -53 20.5 -92t54 -64.5t77.5 -37.5t89 -12q86 0 160 34.5t123 81.5v365q-88 -2 -182.5 -12.5t-170 -40t-123.5 -83t-48 -139.5zM239 1380l80 82l354 -286l-51 -56z" />
<glyph unicode="&#xe1;" horiz-adv-x="976" d="M84 276q0 106 57.5 177t147.5 112t203.5 57.5t230.5 18.5v43q0 113 -60.5 170t-173.5 57q-82 0 -144 -33.5t-103 -78.5l-78 57q53 63 131 104t199 41q340 0 340 -327v-674h-101l-8 84q-51 -49 -124 -78t-175 -29q-74 0 -136.5 19.5t-108.5 57.5t-71.5 94t-25.5 128z M199 274q0 -53 20.5 -92t54 -64.5t77.5 -37.5t89 -12q86 0 160 34.5t123 81.5v365q-88 -2 -182.5 -12.5t-170 -40t-123.5 -83t-48 -139.5zM334 1180l357 286l75 -86l-380 -260z" />
<glyph unicode="&#xe2;" horiz-adv-x="976" d="M84 276q0 106 57.5 177t147.5 112t203.5 57.5t230.5 18.5v43q0 113 -60.5 170t-173.5 57q-82 0 -144 -33.5t-103 -78.5l-78 57q53 63 131 104t199 41q340 0 340 -327v-674h-101l-8 84q-51 -49 -124 -78t-175 -29q-74 0 -136.5 19.5t-108.5 57.5t-71.5 94t-25.5 128z M199 274q0 -53 20.5 -92t54 -64.5t77.5 -37.5t89 -12q86 0 160 34.5t123 81.5v365q-88 -2 -182.5 -12.5t-170 -40t-123.5 -83t-48 -139.5zM184 1163l271 307h86l264 -307l-72 -47l-235 266l-240 -266z" />
<glyph unicode="&#xe3;" horiz-adv-x="976" d="M84 276q0 106 57.5 177t147.5 112t203.5 57.5t230.5 18.5v43q0 113 -60.5 170t-173.5 57q-82 0 -144 -33.5t-103 -78.5l-78 57q53 63 131 104t199 41q340 0 340 -327v-674h-101l-8 84q-51 -49 -124 -78t-175 -29q-74 0 -136.5 19.5t-108.5 57.5t-71.5 94t-25.5 128z M199 274q0 -53 20.5 -92t54 -64.5t77.5 -37.5t89 -12q86 0 160 34.5t123 81.5v365q-88 -2 -182.5 -12.5t-170 -40t-123.5 -83t-48 -139.5zM133 1231q31 72 83 118t124 46q43 0 86 -19.5t84 -42.5q23 -14 54.5 -31.5t62.5 -17.5q74 0 131 109l76 -35q-31 -78 -83.5 -120 t-123.5 -42q-35 0 -73 17.5t-79 39.5q-41 23 -69.5 38.5t-63.5 15.5q-74 0 -131 -113z" />
<glyph unicode="&#xe4;" horiz-adv-x="976" d="M84 276q0 106 57.5 177t147.5 112t203.5 57.5t230.5 18.5v43q0 113 -60.5 170t-173.5 57q-82 0 -144 -33.5t-103 -78.5l-78 57q53 63 131 104t199 41q340 0 340 -327v-674h-101l-8 84q-51 -49 -124 -78t-175 -29q-74 0 -136.5 19.5t-108.5 57.5t-71.5 94t-25.5 128z M199 274q0 -53 20.5 -92t54 -64.5t77.5 -37.5t89 -12q86 0 160 34.5t123 81.5v365q-88 -2 -182.5 -12.5t-170 -40t-123.5 -83t-48 -139.5zM244 1321q0 37 24.5 63.5t59.5 26.5t58.5 -26.5t23.5 -63.5q0 -39 -23.5 -64.5t-58.5 -25.5t-59.5 25.5t-24.5 64.5zM586 1321 q0 37 24.5 63.5t59.5 26.5t58.5 -26.5t23.5 -63.5q0 -39 -23.5 -64.5t-58.5 -25.5t-59.5 25.5t-24.5 64.5z" />
<glyph unicode="&#xe5;" horiz-adv-x="976" d="M84 276q0 106 57.5 177t147.5 112t203.5 57.5t230.5 18.5v43q0 113 -60.5 170t-173.5 57q-82 0 -144 -33.5t-103 -78.5l-78 57q53 63 131 104t199 41q340 0 340 -327v-674h-101l-8 84q-51 -49 -124 -78t-175 -29q-74 0 -136.5 19.5t-108.5 57.5t-71.5 94t-25.5 128z M199 274q0 -53 20.5 -92t54 -64.5t77.5 -37.5t89 -12q86 0 160 34.5t123 81.5v365q-88 -2 -182.5 -12.5t-170 -40t-123.5 -83t-48 -139.5zM304 1296q0 82 53 142.5t147 60.5q92 0 146.5 -60.5t54.5 -140.5q0 -41 -14.5 -76.5t-40 -64.5t-63.5 -45t-83 -16q-94 0 -147 60 t-53 140zM375 1298q0 -53 36 -95t93 -42t92 41t35 94v2q0 53 -34.5 94.5t-92.5 41.5q-57 0 -93 -41.5t-36 -94.5z" />
<glyph unicode="&#xe6;" horiz-adv-x="1632" d="M84 276q0 117 68.5 189t179.5 104q90 29 189.5 36t213.5 7v72q0 117 -66.5 172t-176.5 55q-76 0 -141.5 -31.5t-108.5 -80.5l-82 53q53 66 133 107.5t209 41.5q125 0 198.5 -43t110.5 -127q49 78 124 124t200 46q106 0 183 -34.5t130 -99t78.5 -154.5t27.5 -203h-710 q0 -100 17.5 -181t56 -139.5t101 -90t152.5 -31.5q106 0 172 45t111 125l82 -45q-27 -47 -58.5 -86t-75.5 -68t-101.5 -45.5t-133.5 -16.5t-134 16.5t-102 44.5t-75 62.5t-49 73.5q-20 -39 -50 -73.5t-72 -62.5t-99.5 -44.5t-128.5 -16.5q-166 0 -269.5 77t-103.5 222z M199 274q0 -104 70.5 -155t189.5 -51q59 0 110.5 18t88 50t57 75t20.5 92v219q-88 0 -169 -4t-152 -20q-92 -20 -153.5 -75t-61.5 -149zM844 600h586q-4 82 -31 140.5t-67 96t-91 56t-106 18.5q-129 0 -206 -82t-85 -229z" />
<glyph unicode="&#xe7;" horiz-adv-x="978" d="M100 487q0 129 37 225.5t98.5 161t142.5 96t171 31.5q80 0 138 -19t100 -50t72 -68t46 -73l-88 -50q-39 74 -102.5 122t-165.5 48q-76 0 -137.5 -31.5t-105.5 -88t-68.5 -133t-24.5 -169.5q0 -96 24.5 -172.5t70.5 -132t110.5 -85t142.5 -29.5q180 0 281 161l82 -51 q-53 -92 -145.5 -147.5t-223.5 -55.5q-96 0 -179 34t-144.5 99.5t-96.5 159.5t-35 217zM385 -356l111 266h131l-154 -266h-88z" />
<glyph unicode="&#xe8;" horiz-adv-x="1044" d="M100 489q0 119 33 214.5t91.5 161t138 101t178.5 35.5q102 0 181 -35.5t132 -100t81 -157t32 -202.5h-758q0 -207 92 -322.5t268 -115.5q111 0 181.5 50t115.5 126l82 -49q-27 -43 -59.5 -82t-78.5 -70t-106.5 -48.5t-138.5 -17.5q-219 0 -342 134t-123 378zM217 596h625 q-6 82 -34 142.5t-70 98t-93 56t-104 18.5q-123 0 -211 -74.5t-113 -240.5zM289 1380l80 82l354 -286l-51 -56z" />
<glyph unicode="&#xe9;" horiz-adv-x="1044" d="M100 489q0 119 33 214.5t91.5 161t138 101t178.5 35.5q102 0 181 -35.5t132 -100t81 -157t32 -202.5h-758q0 -207 92 -322.5t268 -115.5q111 0 181.5 50t115.5 126l82 -49q-27 -43 -59.5 -82t-78.5 -70t-106.5 -48.5t-138.5 -17.5q-219 0 -342 134t-123 378zM217 596h625 q-6 82 -34 142.5t-70 98t-93 56t-104 18.5q-123 0 -211 -74.5t-113 -240.5zM329 1180l357 286l75 -86l-380 -260z" />
<glyph unicode="&#xea;" horiz-adv-x="1044" d="M100 489q0 119 33 214.5t91.5 161t138 101t178.5 35.5q102 0 181 -35.5t132 -100t81 -157t32 -202.5h-758q0 -207 92 -322.5t268 -115.5q111 0 181.5 50t115.5 126l82 -49q-27 -43 -59.5 -82t-78.5 -70t-106.5 -48.5t-138.5 -17.5q-219 0 -342 134t-123 378zM217 596h625 q-6 82 -34 142.5t-70 98t-93 56t-104 18.5q-123 0 -211 -74.5t-113 -240.5zM229 1163l271 307h86l264 -307l-72 -47l-235 266l-240 -266z" />
<glyph unicode="&#xeb;" horiz-adv-x="1044" d="M100 489q0 119 33 214.5t91.5 161t138 101t178.5 35.5q102 0 181 -35.5t132 -100t81 -157t32 -202.5h-758q0 -207 92 -322.5t268 -115.5q111 0 181.5 50t115.5 126l82 -49q-27 -43 -59.5 -82t-78.5 -70t-106.5 -48.5t-138.5 -17.5q-219 0 -342 134t-123 378zM217 596h625 q-6 82 -34 142.5t-70 98t-93 56t-104 18.5q-123 0 -211 -74.5t-113 -240.5zM297 1321q0 37 24.5 63.5t59.5 26.5t58.5 -26.5t23.5 -63.5q0 -39 -23.5 -64.5t-58.5 -25.5t-59.5 25.5t-24.5 64.5zM639 1321q0 37 24.5 63.5t59.5 26.5t58.5 -26.5t23.5 -63.5q0 -39 -23.5 -64.5 t-58.5 -25.5t-59.5 25.5t-24.5 64.5z" />
<glyph unicode="&#xec;" horiz-adv-x="411" d="M147 0v975h113v-975h-113zM-58 1380l80 82l354 -286l-51 -56z" />
<glyph unicode="&#xed;" horiz-adv-x="411" d="M147 0v975h113v-975h-113zM53 1180l357 286l75 -86l-380 -260z" />
<glyph unicode="&#xee;" horiz-adv-x="411" d="M147 0v975h113v-975h-113zM-103 1163l271 307h86l264 -307l-72 -47l-235 266l-240 -266z" />
<glyph unicode="&#xef;" horiz-adv-x="411" d="M147 0v975h113v-975h-113zM-47 1321q0 37 24.5 63.5t59.5 26.5t58.5 -26.5t23.5 -63.5q0 -39 -23.5 -64.5t-58.5 -25.5t-59.5 25.5t-24.5 64.5zM295 1321q0 37 24.5 63.5t59.5 26.5t58.5 -26.5t23.5 -63.5q0 -39 -23.5 -64.5t-58.5 -25.5t-59.5 25.5t-24.5 64.5z" />
<glyph unicode="&#xf0;" horiz-adv-x="1105" d="M100 492q0 119 34 214t93.5 160.5t141.5 100t182 34.5q96 0 160.5 -20t113.5 -49q-37 78 -88 146.5t-116 113.5l-89 -113l-67 43l88 111q-43 25 -101.5 45t-109.5 33l23 78q70 -10 131 -33t110 -51l92 114l68 -43l-92 -114q72 -51 133 -120t105 -158t69 -199.5t25 -241.5 q0 -147 -34 -254t-95.5 -175.5t-143.5 -102.5t-176 -34t-178 32t-145.5 96.5t-97.5 161t-36 225.5zM213 492q0 -104 26.5 -183.5t72.5 -132.5t109.5 -80.5t135.5 -27.5t132.5 27.5t107.5 85t72.5 146.5t25.5 214q0 86 -14 159q-12 74 -25 121q-63 37 -136 63.5t-165 26.5 q-152 0 -247 -108t-95 -311z" />
<glyph unicode="&#xf1;" horiz-adv-x="1120" d="M147 0v975h105l8 -90q66 47 145.5 81.5t196.5 34.5q377 0 377 -389v-612h-113v623q0 135 -68.5 210.5t-209.5 75.5q-104 0 -185 -39t-143 -88v-782h-113zM221 1231q31 72 83 118t124 46q43 0 86 -19.5t84 -42.5q23 -14 54.5 -31.5t62.5 -17.5q74 0 131 109l76 -35 q-31 -78 -83.5 -120t-123.5 -42q-35 0 -73 17.5t-79 39.5q-41 23 -69.5 38.5t-63.5 15.5q-74 0 -131 -113z" />
<glyph unicode="&#xf2;" horiz-adv-x="1116" d="M100 496q0 98 30 189t86 162t141 112.5t200 41.5q113 0 199 -43t143 -113.5t87 -162.5t30 -190q0 -100 -30 -193.5t-87 -164.5t-143 -114t-199 -43t-199 43q-84 45 -141 117t-87 166.5t-30 192.5zM213 496q0 -80 21.5 -157t64.5 -138q43 -59 107.5 -96t150.5 -37 q88 0 152.5 37.5t107.5 98t64.5 136.5t21.5 154t-21.5 152.5t-64.5 134t-107.5 95t-152.5 35.5t-152.5 -35.5t-107.5 -94t-63.5 -133t-20.5 -152.5zM307 1380l80 82l354 -286l-51 -56z" />
<glyph unicode="&#xf3;" horiz-adv-x="1116" d="M100 496q0 98 30 189t86 162t141 112.5t200 41.5q113 0 199 -43t143 -113.5t87 -162.5t30 -190q0 -100 -30 -193.5t-87 -164.5t-143 -114t-199 -43t-199 43q-84 45 -141 117t-87 166.5t-30 192.5zM213 496q0 -80 21.5 -157t64.5 -138q43 -59 107.5 -96t150.5 -37 q88 0 152.5 37.5t107.5 98t64.5 136.5t21.5 154t-21.5 152.5t-64.5 134t-107.5 95t-152.5 35.5t-152.5 -35.5t-107.5 -94t-63.5 -133t-20.5 -152.5zM350 1180l357 286l75 -86l-380 -260z" />
<glyph unicode="&#xf4;" horiz-adv-x="1116" d="M100 496q0 98 30 189t86 162t141 112.5t200 41.5q113 0 199 -43t143 -113.5t87 -162.5t30 -190q0 -100 -30 -193.5t-87 -164.5t-143 -114t-199 -43t-199 43q-84 45 -141 117t-87 166.5t-30 192.5zM213 496q0 -80 21.5 -157t64.5 -138q43 -59 107.5 -96t150.5 -37 q88 0 152.5 37.5t107.5 98t64.5 136.5t21.5 154t-21.5 152.5t-64.5 134t-107.5 95t-152.5 35.5t-152.5 -35.5t-107.5 -94t-63.5 -133t-20.5 -152.5zM243 1163l271 307h86l264 -307l-72 -47l-235 266l-240 -266z" />
<glyph unicode="&#xf5;" horiz-adv-x="1116" d="M100 496q0 98 30 189t86 162t141 112.5t200 41.5q113 0 199 -43t143 -113.5t87 -162.5t30 -190q0 -100 -30 -193.5t-87 -164.5t-143 -114t-199 -43t-199 43q-84 45 -141 117t-87 166.5t-30 192.5zM213 496q0 -80 21.5 -157t64.5 -138q43 -59 107.5 -96t150.5 -37 q88 0 152.5 37.5t107.5 98t64.5 136.5t21.5 154t-21.5 152.5t-64.5 134t-107.5 95t-152.5 35.5t-152.5 -35.5t-107.5 -94t-63.5 -133t-20.5 -152.5zM196 1231q31 72 83 118t124 46q43 0 86 -19.5t84 -42.5q23 -14 54.5 -31.5t62.5 -17.5q74 0 131 109l76 -35 q-31 -78 -83.5 -120t-123.5 -42q-35 0 -73 17.5t-79 39.5q-41 23 -69.5 38.5t-63.5 15.5q-74 0 -131 -113z" />
<glyph unicode="&#xf6;" horiz-adv-x="1116" d="M100 496q0 98 30 189t86 162t141 112.5t200 41.5q113 0 199 -43t143 -113.5t87 -162.5t30 -190q0 -100 -30 -193.5t-87 -164.5t-143 -114t-199 -43t-199 43q-84 45 -141 117t-87 166.5t-30 192.5zM213 496q0 -80 21.5 -157t64.5 -138q43 -59 107.5 -96t150.5 -37 q88 0 152.5 37.5t107.5 98t64.5 136.5t21.5 154t-21.5 152.5t-64.5 134t-107.5 95t-152.5 35.5t-152.5 -35.5t-107.5 -94t-63.5 -133t-20.5 -152.5zM244 1321q0 37 24.5 63.5t59.5 26.5t58.5 -26.5t23.5 -63.5q0 -39 -23.5 -64.5t-58.5 -25.5t-59.5 25.5t-24.5 64.5z M586 1321q0 37 24.5 63.5t59.5 26.5t58.5 -26.5t23.5 -63.5q0 -39 -23.5 -64.5t-58.5 -25.5t-59.5 25.5t-24.5 64.5z" />
<glyph unicode="&#xf7;" d="M72 629v100h966v-100h-966zM461 330q0 43 26.5 72.5t67.5 29.5t66.5 -29.5t25.5 -72.5q0 -41 -25.5 -70t-66.5 -29t-67.5 29t-26.5 70zM461 1034q0 43 26.5 72t67.5 29t66.5 -29t25.5 -72q0 -41 -25.5 -70.5t-66.5 -29.5t-67.5 29.5t-26.5 70.5z" />
<glyph unicode="&#xf8;" horiz-adv-x="1116" d="M100 496q0 98 30 189t86 162t141 112.5t200 41.5q63 0 119.5 -15t105.5 -44l99 162l80 -43l-105 -170q78 -74 119 -178.5t41 -220.5q0 -100 -30 -193.5t-87 -164.5t-143 -114t-199 -43q-66 0 -122 15.5t-101 44.5l-103 -162l-75 45l104 172q-78 74 -119 180.5t-41 223.5z M213 496q0 -86 26.5 -169t75.5 -145l418 678q-37 23 -81 37t-95 14q-88 0 -152.5 -35.5t-107.5 -94t-63.5 -133t-20.5 -152.5zM383 119q37 -23 80 -37t94 -14q88 0 152.5 37.5t107.5 98t64.5 136.5t21.5 154q0 86 -25.5 165.5t-74.5 141.5z" />
<glyph unicode="&#xf9;" horiz-adv-x="1114" d="M139 346v629h115v-629q0 -147 76 -211.5t205 -64.5q98 0 179 37.5t138 97.5v770h113v-975h-101l-8 96q-57 -47 -135 -83t-201 -36q-180 0 -280.5 89.5t-100.5 279.5zM297 1380l80 82l354 -286l-51 -56z" />
<glyph unicode="&#xfa;" horiz-adv-x="1114" d="M139 346v629h115v-629q0 -147 76 -211.5t205 -64.5q98 0 179 37.5t138 97.5v770h113v-975h-101l-8 96q-57 -47 -135 -83t-201 -36q-180 0 -280.5 89.5t-100.5 279.5zM374 1180l357 286l75 -86l-380 -260z" />
<glyph unicode="&#xfb;" horiz-adv-x="1114" d="M139 346v629h115v-629q0 -147 76 -211.5t205 -64.5q98 0 179 37.5t138 97.5v770h113v-975h-101l-8 96q-57 -47 -135 -83t-201 -36q-180 0 -280.5 89.5t-100.5 279.5zM252 1163l271 307h86l264 -307l-72 -47l-235 266l-240 -266z" />
<glyph unicode="&#xfc;" horiz-adv-x="1114" d="M139 346v629h115v-629q0 -147 76 -211.5t205 -64.5q98 0 179 37.5t138 97.5v770h113v-975h-101l-8 96q-57 -47 -135 -83t-201 -36q-180 0 -280.5 89.5t-100.5 279.5zM303 1321q0 37 24.5 63.5t59.5 26.5t58.5 -26.5t23.5 -63.5q0 -39 -23.5 -64.5t-58.5 -25.5t-59.5 25.5 t-24.5 64.5zM645 1321q0 37 24.5 63.5t59.5 26.5t58.5 -26.5t23.5 -63.5q0 -39 -23.5 -64.5t-58.5 -25.5t-59.5 25.5t-24.5 64.5z" />
<glyph unicode="&#xfd;" horiz-adv-x="937" d="M0 975h127l346 -834l344 834h121l-522 -1239q-37 -84 -93.5 -117t-136.5 -33q-49 0 -97 9.5t-81 23.5l35 92q29 -10 66.5 -21.5t72.5 -11.5q53 0 84 23t56 84l92 215zM307 1180l357 286l75 -86l-380 -260z" />
<glyph unicode="&#xfe;" horiz-adv-x="1091" d="M147 -395v1761h113v-467q49 39 125 70.5t176 31.5q109 0 189.5 -36.5t135 -104t81 -160t26.5 -202.5q0 -117 -35.5 -213.5t-100 -165t-155 -105.5t-198.5 -37q-80 0 -140.5 17.5t-101.5 42.5v-432h-115zM262 139q39 -29 97.5 -49t132.5 -20q86 0 158.5 29.5t122.5 84 t78 133t28 177.5q0 86 -18.5 161.5t-59.5 132t-105.5 90t-158.5 33.5q-80 0 -153 -32.5t-122 -81.5v-658z" />
<glyph unicode="&#xff;" horiz-adv-x="937" d="M0 975h127l346 -834l344 834h121l-522 -1239q-37 -84 -93.5 -117t-136.5 -33q-49 0 -97 9.5t-81 23.5l35 92q29 -10 66.5 -21.5t72.5 -11.5q53 0 84 23t56 84l92 215zM225 1321q0 37 24.5 63.5t59.5 26.5t58.5 -26.5t23.5 -63.5q0 -39 -23.5 -64.5t-58.5 -25.5 t-59.5 25.5t-24.5 64.5zM567 1321q0 37 24.5 63.5t59.5 26.5t58.5 -26.5t23.5 -63.5q0 -39 -23.5 -64.5t-58.5 -25.5t-59.5 25.5t-24.5 64.5z" />
<glyph unicode="&#x131;" horiz-adv-x="411" d="M147 0v975h113v-975h-113z" />
<glyph unicode="&#x152;" horiz-adv-x="1847" d="M104 692q0 158 51.5 283t144.5 212t224 133t291 46h963v-100h-658v-490h469v-102h-469v-574h699v-100h-1002q-162 0 -293 48t-224 138t-144.5 218t-51.5 288zM227 688q0 -133 43 -240.5t122 -185.5t187.5 -120t237.5 -42h184v1166h-186q-133 0 -241.5 -41t-185.5 -117 t-119 -182.5t-42 -237.5z" />
<glyph unicode="&#x153;" horiz-adv-x="1746" d="M100 496q0 98 27 190t79 162t134 111.5t195 41.5q82 0 142 -17t104 -48t75 -73t51 -91q23 47 53.5 89t73.5 73t99.5 49t128.5 18q104 0 179 -35.5t126 -100t75.5 -156t26.5 -203.5h-704q0 -88 18 -167t57 -139.5t102.5 -96t153.5 -35.5q109 0 167.5 47t101.5 125l84 -43 q-25 -47 -57.5 -87t-74.5 -69t-97.5 -46.5t-127.5 -17.5q-154 0 -246 67t-135 179q-51 -111 -139 -178.5t-237 -67.5q-113 0 -195 43t-134 116t-79 166.5t-27 193.5zM213 496q0 -84 18.5 -161t57.5 -136t99.5 -95t146.5 -36t147 35.5t101 95t58.5 136.5t18.5 159 q0 88 -19.5 163.5t-59.5 132t-101.5 89t-144.5 32.5q-86 0 -146.5 -34.5t-99.5 -92t-57.5 -132t-18.5 -156.5zM965 596h577q-10 166 -90 240.5t-190 74.5q-117 0 -197 -77.5t-100 -237.5z" />
<glyph unicode="&#x178;" horiz-adv-x="1107" d="M0 1366h133l416 -604l430 604h129l-504 -707v-659h-119v657zM303 1655q0 37 24.5 63.5t59.5 26.5t58.5 -26.5t23.5 -63.5q0 -39 -23.5 -64.5t-58.5 -25.5t-59.5 25.5t-24.5 64.5zM645 1655q0 37 24.5 63.5t59.5 26.5t58.5 -26.5t23.5 -63.5q0 -39 -23.5 -64.5 t-58.5 -25.5t-59.5 25.5t-24.5 64.5z" />
<glyph unicode="&#x2c6;" horiz-adv-x="739" d="M59 1163l271 307h86l264 -307l-72 -47l-235 266l-240 -266z" />
<glyph unicode="&#x2da;" horiz-adv-x="620" d="M111 1296q0 82 53 142.5t147 60.5q92 0 146.5 -60.5t54.5 -140.5q0 -41 -14.5 -76.5t-40 -64.5t-63.5 -45t-83 -16q-94 0 -147 60t-53 140zM182 1298q0 -53 36 -95t93 -42t92 41t35 94v2q0 53 -34.5 94.5t-92.5 41.5q-57 0 -93 -41.5t-36 -94.5z" />
<glyph unicode="&#x2dc;" horiz-adv-x="798" d="M49 1231q31 72 83 118t124 46q43 0 86 -19.5t84 -42.5q23 -14 54.5 -31.5t62.5 -17.5q74 0 131 109l76 -35q-31 -78 -83.5 -120t-123.5 -42q-35 0 -73 17.5t-79 39.5q-41 23 -69.5 38.5t-63.5 15.5q-74 0 -131 -113z" />
<glyph unicode="&#x2000;" horiz-adv-x="903" />
<glyph unicode="&#x2001;" horiz-adv-x="1806" />
<glyph unicode="&#x2002;" horiz-adv-x="903" />
<glyph unicode="&#x2003;" horiz-adv-x="1806" />
<glyph unicode="&#x2004;" horiz-adv-x="602" />
<glyph unicode="&#x2005;" horiz-adv-x="450" />
<glyph unicode="&#x2006;" horiz-adv-x="301" />
<glyph unicode="&#x2007;" horiz-adv-x="301" />
<glyph unicode="&#x2008;" horiz-adv-x="225" />
<glyph unicode="&#x2009;" horiz-adv-x="360" />
<glyph unicode="&#x200a;" horiz-adv-x="100" />
<glyph unicode="&#x2010;" horiz-adv-x="649" d="M96 489v107h457v-107h-457z" />
<glyph unicode="&#x2011;" horiz-adv-x="649" d="M96 489v107h457v-107h-457z" />
<glyph unicode="&#x2012;" horiz-adv-x="649" d="M96 489v107h457v-107h-457z" />
<glyph unicode="&#x2013;" horiz-adv-x="1120" d="M0 479v96h1120v-96h-1120z" />
<glyph unicode="&#x2014;" horiz-adv-x="2240" d="M0 479v96h2241v-96h-2241z" />
<glyph unicode="&#x2018;" horiz-adv-x="309" d="M55 1270q0 49 22.5 78.5t63.5 29.5q43 0 64.5 -30.5t21.5 -71.5q0 -47 -19.5 -70.5t-41.5 -34.5q16 -33 55 -66.5t76 -49.5l-25 -51q-41 20 -78.5 47.5t-69.5 61.5t-50.5 73t-18.5 84z" />
<glyph unicode="&#x2019;" horiz-adv-x="309" d="M12 1055q37 16 76 50t55 66q-23 10 -42 34t-19 71q0 41 21.5 71.5t64.5 30.5q41 0 63.5 -29.5t22.5 -78.5q0 -45 -18.5 -84t-49 -73t-69.5 -61.5t-80 -47.5z" />
<glyph unicode="&#x201a;" horiz-adv-x="317" d="M12 -123q37 16 76 51t55 66q-23 12 -42 35.5t-19 68.5q0 43 21.5 73t64.5 30q41 0 63.5 -30t22.5 -77q0 -45 -18.5 -85t-49 -73.5t-69.5 -60.5t-80 -47z" />
<glyph unicode="&#x201c;" horiz-adv-x="622" d="M55 1270q0 49 22.5 78.5t65.5 29.5t64.5 -30.5t21.5 -71.5q0 -47 -19.5 -70.5t-41.5 -34.5q16 -33 54 -66.5t75 -49.5l-25 -51q-41 20 -78.5 47.5t-69.5 61.5t-50.5 73t-18.5 84zM371 1270q0 49 22.5 78.5t63.5 29.5q43 0 64.5 -30.5t21.5 -71.5q0 -47 -19.5 -70.5 t-44.5 -34.5q18 -33 56 -66.5t75 -49.5l-22 -51q-41 20 -80 47.5t-70.5 61.5t-49 73t-17.5 84z" />
<glyph unicode="&#x201d;" horiz-adv-x="622" d="M12 1055q37 16 76 50t55 66q-23 10 -42 34t-19 71q0 41 21.5 71.5t64.5 30.5q41 0 63.5 -29.5t22.5 -78.5q0 -45 -18.5 -84t-49 -73t-69.5 -61.5t-80 -47.5zM328 1055q35 16 72.5 50t56.5 66q-25 10 -44.5 34t-19.5 71q0 41 21.5 71.5t64.5 30.5t65.5 -29.5t22.5 -78.5 q0 -45 -18.5 -84t-49 -73t-69.5 -61.5t-80 -47.5z" />
<glyph unicode="&#x201e;" horiz-adv-x="632" d="M12 -123q37 16 76 51t55 66q-23 12 -42 35.5t-19 68.5q0 43 21.5 73t64.5 30q41 0 63.5 -30t22.5 -77q0 -45 -18.5 -85t-49 -73.5t-69.5 -60.5t-80 -47zM328 -123q35 16 72.5 51t56.5 66q-25 12 -44.5 35.5t-19.5 68.5q0 43 21.5 73t64.5 30t65.5 -30t22.5 -77 q0 -45 -18.5 -85t-49 -73.5t-69.5 -60.5t-80 -47z" />
<glyph unicode="&#x2022;" horiz-adv-x="847" d="M106 766q0 61 26 116.5t69 97.5t99 65.5t124 23.5q66 0 123 -23.5t100 -65.5t67.5 -97.5t24.5 -116.5t-24.5 -116.5t-67.5 -96.5t-100.5 -64.5t-122.5 -23.5q-66 0 -123 22q-57 25 -100 66t-69 95.5t-26 117.5z" />
<glyph unicode="&#x2026;" horiz-adv-x="1185" d="M90 76q0 41 24.5 69.5t61.5 28.5q39 0 62.5 -29.5t23.5 -68.5t-23.5 -69t-62.5 -30q-37 0 -61.5 29t-24.5 70zM508 76q0 41 24.5 69.5t61.5 28.5t60.5 -29.5t23.5 -68.5t-23.5 -69t-60.5 -30t-61.5 29t-24.5 70zM922 76q0 41 25.5 69.5t62.5 28.5t60.5 -29.5t23.5 -68.5 t-23.5 -69t-60.5 -30t-62.5 29t-25.5 70z" />
<glyph unicode="&#x202f;" horiz-adv-x="360" />
<glyph unicode="&#x2039;" horiz-adv-x="618" d="M63 514l383 408l76 -62l-313 -340l348 -336l-74 -63z" />
<glyph unicode="&#x203a;" horiz-adv-x="618" d="M74 860l76 62l405 -400l-399 -401l-72 63l324 336z" />
<glyph unicode="&#x2044;" horiz-adv-x="428" d="M-492 59l1328 1313l69 -65l-1333 -1317z" />
<glyph unicode="&#x205f;" horiz-adv-x="450" />
<glyph unicode="&#x2074;" horiz-adv-x="618" d="M35 874v76l379 412h78v-416h94v-72h-94v-184h-97v184h-360zM135 946h260v285z" />
<glyph unicode="&#x20ac;" d="M35 457v92h168q-2 25 -3 58.5t-1 62.5v60q0 32 2 61h-166v94h174q27 236 143.5 364.5t298.5 128.5q80 0 140.5 -17.5t105.5 -49t77 -75.5t58 -95l-100 -45q-41 80 -104.5 133t-174.5 53q-133 0 -219 -100.5t-104 -296.5h368v-94h-376q-2 -29 -3 -60v-61q0 -29 1.5 -62 t5.5 -59h372v-92h-364q29 -205 119 -293t213 -88q106 0 169.5 51t108.5 137l92 -51q-27 -49 -59.5 -92t-77.5 -75t-103.5 -50.5t-131.5 -18.5q-178 0 -297 115t-154 365h-178z" />
<glyph unicode="&#x2122;" horiz-adv-x="1234" d="M31 1290v76h481v-76h-199v-512h-86v512h-196zM578 778v588h106l193 -428l182 428h102v-588h-90v436l-162 -383l-39 -57l-200 436v-432h-92z" />
<glyph unicode="&#xe000;" horiz-adv-x="975" d="M0 975h975v-975h-975v975z" />
<glyph unicode="&#xfb01;" horiz-adv-x="960" d="M37 885v90h151v112q0 78 27 135.5t70 95.5t100 56.5t121 18.5q98 0 160.5 -28t97.5 -54l-57 -78q-29 23 -79 46.5t-120 23.5q-88 0 -148.5 -49.5t-60.5 -174.5v-104h242v-90h-240v-885h-113v885h-151zM725 0v975h111v-975h-111z" />
<glyph unicode="&#xfb02;" horiz-adv-x="985" d="M37 885v90h151v94q0 80 29 140.5t78 100.5t116.5 59.5t147.5 19.5q104 0 169 -19.5t108 -38.5v-1331h-111v1264q-25 12 -68 21t-92 9q-121 0 -193.5 -52t-72.5 -183v-84h229v-90h-227v-885h-113v885h-151z" />
<glyph unicode="&#xfb03;" horiz-adv-x="1523" d="M37 885v90h151v115q0 156 74 229.5t199 73.5q74 0 122 -14.5t79 -30.5l-39 -88q-29 16 -68 28t-90 12q-76 0 -120 -46t-44 -173v-106h451v112q0 78 26.5 135.5t69.5 95.5t100.5 56.5t120.5 18.5q98 0 160.5 -28t97.5 -54l-55 -78q-31 23 -80 46.5t-121 23.5 q-88 0 -148.5 -49.5t-60.5 -174.5v-104h242v-90h-240v-885h-112v885h-451v-885h-113v885h-151zM1288 0v975h113v-975h-113z" />
<glyph unicode="&#xfb04;" horiz-adv-x="1550" d="M37 885v90h151v115q0 156 74 229.5t199 73.5q74 0 122 -14.5t79 -30.5l-39 -88q-29 16 -68 28t-90 12q-76 0 -120 -46t-44 -173v-106h455v94q0 80 27.5 140.5t76.5 100.5t116.5 59.5t147.5 19.5q106 0 171 -19.5t108 -38.5v-1331h-113v1264q-25 12 -67.5 21t-92.5 9 q-121 0 -193.5 -52t-72.5 -183v-84h230v-90h-228v-885h-110v885h-455v-885h-113v885h-151z" />
</font>
</defs>
</svg>
